<svg xmlns="http://www.w3.org/2000/svg" width="39" height="27" viewBox="0 0 39 27">
  <g id="Grupo_1810" data-name="Grupo 1810" transform="translate(4299 -2759)">
    <g id="Grupo_1809" data-name="Grupo 1809" transform="translate(-4466.25 2653.75)">
      <path id="Trazado_1504" data-name="Trazado 1504" d="M198.422,135.16H175.854a.6.6,0,0,1-.6-.6v-13.7a.6.6,0,1,1,1.209,0v13.1h21.358v-13.1a.6.6,0,1,1,1.209,0v13.7A.6.6,0,0,1,198.422,135.16Z" transform="translate(-0.388 -2.91)" fill="#43425d"/>
      <path id="Trazado_1505" data-name="Trazado 1505" d="M199.646,119.907H173.854a.6.6,0,0,1-.6-.6v-6.448a.6.6,0,0,1,.6-.6h25.791a.6.6,0,0,1,.6.6V119.3A.6.6,0,0,1,199.646,119.907ZM174.459,118.7h24.582v-5.239H174.459Z" transform="translate(0 -1.358)" fill="#43425d"/>
      <path id="Trazado_1506" data-name="Trazado 1506" d="M181.129,112.1a.6.6,0,0,1-.445-.2l-1.406-1.525a3.058,3.058,0,0,1,4.5-4.146l4.455,4.832a.6.6,0,0,1-.889.82l-4.455-4.832a1.893,1.893,0,0,0-2.719,0,1.859,1.859,0,0,0,0,2.507l1.406,1.526a.6.6,0,0,1-.444,1.014Z" transform="translate(-1.014)" fill="#43425d"/>
      <path id="Trazado_1507" data-name="Trazado 1507" d="M196.457,112.1a.6.6,0,0,1-.444-1.014l1.406-1.526a1.859,1.859,0,0,0,0-2.507,1.831,1.831,0,0,0-1.359-.6h0a1.83,1.83,0,0,0-1.359.6l-4.423,4.8a.6.6,0,0,1-.888-.819l4.422-4.8a3.065,3.065,0,0,1,2.248-.985h0a3.058,3.058,0,0,1,2.247,5.131l-1.406,1.525A.6.6,0,0,1,196.457,112.1Z" transform="translate(-3.1)" fill="#43425d"/>
      <path id="Trazado_1508" data-name="Trazado 1508" d="M189.854,133.608a.6.6,0,0,1-.6-.6V112.854a.6.6,0,1,1,1.209,0V133A.6.6,0,0,1,189.854,133.608Z" transform="translate(-3.104 -1.358)" fill="#43425d"/>
      <path id="Trazado_1509" data-name="Trazado 1509" d="M189.854,133.608a.6.6,0,0,1-.6-.6V112.854a.6.6,0,1,1,1.209,0V133A.6.6,0,0,1,189.854,133.608Z" transform="translate(-3.104 -1.358)" fill="#43425d"/>
    </g>
    <rect id="Rectángulo_2991" data-name="Rectángulo 2991" width="39" height="27" transform="translate(-4299 2759)" fill="none"/>
  </g>
</svg>
