<svg xmlns="http://www.w3.org/2000/svg" width="39" height="27" viewBox="0 0 39 27">
  <g id="Grupo_1808" data-name="Grupo 1808" transform="translate(4379 -2743)">
    <rect id="Rectángulo_2991" data-name="Rectángulo 2991" width="39" height="27" transform="translate(-4379 2743)" fill="none"/>
    <g id="Grupo_1807" data-name="Grupo 1807" transform="translate(-4680.25 2367.75)">
      <path id="Trazado_1406" data-name="Trazado 1406" d="M319.933,403.676a.549.549,0,0,1-.549-.549v-4.161l-5.022-5.023a.918.918,0,0,0-1.293,0l-.126.126a.916.916,0,0,0,0,1.293l3.355,3.355a.548.548,0,0,1-.775.775l-3.354-3.354a2.013,2.013,0,0,1,0-2.844l.126-.126a2.013,2.013,0,0,1,2.844,0l5.183,5.183a.546.546,0,0,1,.161.388v4.389A.549.549,0,0,1,319.933,403.676Z" transform="translate(-1.431 -4.385)" fill="#43425d"/>
      <path id="Trazado_1407" data-name="Trazado 1407" d="M312.65,400.365a.549.549,0,0,1-.549-.549v-.5l-3.76-3.76a7.194,7.194,0,0,1-2.092-5.051v-8.241a2.012,2.012,0,0,1,4.023,0v6.583a.549.549,0,0,1-1.1,0v-6.583a.914.914,0,0,0-1.829,0V390.5a6.09,6.09,0,0,0,1.771,4.275l3.92,3.921a.546.546,0,0,1,.161.388v.732A.549.549,0,0,1,312.65,400.365Z" transform="translate(0 -1.074)" fill="#43425d"/>
      <path id="Trazado_1408" data-name="Trazado 1408" d="M328.8,403.676a.549.549,0,0,1-.549-.549v-4.389a.546.546,0,0,1,.161-.388l5.183-5.183a2.013,2.013,0,0,1,2.844,0l.126.126a2.013,2.013,0,0,1,0,2.844l-3.355,3.354a.548.548,0,0,1-.775-.775l3.355-3.355a.916.916,0,0,0,0-1.293l-.126-.126a.917.917,0,0,0-1.293,0l-5.022,5.023v4.161A.549.549,0,0,1,328.8,403.676Z" transform="translate(-5.908 -4.385)" fill="#43425d"/>
      <path id="Trazado_1409" data-name="Trazado 1409" d="M336.8,400.365a.549.549,0,0,1-.549-.549v-.732a.546.546,0,0,1,.161-.388l3.92-3.921A6.09,6.09,0,0,0,342.1,390.5v-8.241a.914.914,0,0,0-1.829,0v6.583a.549.549,0,1,1-1.1,0v-6.583a2.012,2.012,0,0,1,4.023,0V390.5a7.2,7.2,0,0,1-2.092,5.051l-3.76,3.76v.5A.549.549,0,0,1,336.8,400.365Z" transform="translate(-8.056 -1.074)" fill="#43425d"/>
      <path id="Trazado_1410" data-name="Trazado 1410" d="M323.382,390.514a7.132,7.132,0,1,1,7.132-7.132A7.14,7.14,0,0,1,323.382,390.514Zm0-13.166a6.035,6.035,0,1,0,6.035,6.035A6.042,6.042,0,0,0,323.382,377.347Z" transform="translate(-2.685)" fill="#43425d"/>
      <path id="Trazado_1411" data-name="Trazado 1411" d="M325.724,388.2H322.8a.549.549,0,0,1,0-1.1h2.926a.914.914,0,1,0,0-1.829h-1.463a2.012,2.012,0,1,1,0-4.023h2.926a.549.549,0,0,1,0,1.1h-2.926a.914.914,0,1,0,0,1.829h1.463a2.012,2.012,0,0,1,0,4.023Z" transform="translate(-4.296 -1.343)" fill="#43425d"/>
      <path id="Trazado_1412" data-name="Trazado 1412" d="M325.8,381.81a.549.549,0,0,1-.549-.549V379.8a.549.549,0,1,1,1.1,0v1.463A.549.549,0,0,1,325.8,381.81Z" transform="translate(-5.102 -0.806)" fill="#43425d"/>
      <path id="Trazado_1413" data-name="Trazado 1413" d="M325.8,391.81a.549.549,0,0,1-.549-.549V389.8a.549.549,0,0,1,1.1,0v1.463A.549.549,0,0,1,325.8,391.81Z" transform="translate(-5.102 -3.491)" fill="#43425d"/>
      <path id="Trazado_1414" data-name="Trazado 1414" d="M321.113,410.81a.549.549,0,0,1-.549-.549v-.914h-6.217v.914a.549.549,0,1,1-1.1,0V408.8a.549.549,0,0,1,.549-.549h7.315a.549.549,0,0,1,.549.549v1.463A.549.549,0,0,1,321.113,410.81Z" transform="translate(-1.88 -8.593)" fill="#43425d"/>
      <path id="Trazado_1415" data-name="Trazado 1415" d="M335.113,410.81a.549.549,0,0,1-.549-.549v-.914h-6.217v.914a.549.549,0,1,1-1.1,0V408.8a.549.549,0,0,1,.549-.549h7.315a.549.549,0,0,1,.549.549v1.463A.549.549,0,0,1,335.113,410.81Z" transform="translate(-5.639 -8.593)" fill="#43425d"/>
    </g>
  </g>
</svg>
