<svg xmlns="http://www.w3.org/2000/svg" width="39" height="27" viewBox="0 0 39 27">
  <g id="Grupo_1787" data-name="Grupo 1787" transform="translate(4475 -2781)">
    <rect id="Rectángulo_2990" data-name="Rectángulo 2990" width="39" height="27" transform="translate(-4475 2781)" fill="none"/>
    <g id="Grupo_1786" data-name="Grupo 1786" transform="translate(-4844.25 2608.75)">
      <path id="Trazado_1270" data-name="Trazado 1270" d="M396.846,177.347H388.8a.549.549,0,1,1,0-1.1h8.047a.549.549,0,1,1,0,1.1Z" transform="translate(-3.221 -1.074)" fill="#43425d"/>
      <path id="Trazado_1271" data-name="Trazado 1271" d="M401.672,199.294H376.8a.549.549,0,0,1-.549-.549V176.8a.549.549,0,0,1,.549-.549h1.463a.549.549,0,0,1,0,1.1h-.914V198.2h23.776V177.347h-.914a.549.549,0,1,1,0-1.1h1.463a.549.549,0,0,1,.549.549v21.947A.549.549,0,0,1,401.672,199.294Z" transform="translate(0 -1.074)" fill="#43425d"/>
      <path id="Trazado_1272" data-name="Trazado 1272" d="M383.993,178.468H381.8a.549.549,0,0,1-.549-.549V172.8a.549.549,0,0,1,.549-.549h2.195a.549.549,0,0,1,.549.549v5.121A.549.549,0,0,1,383.993,178.468Zm-1.646-1.1h1.1v-4.024h-1.1Z" transform="translate(-1.342)" fill="#43425d"/>
      <path id="Trazado_1273" data-name="Trazado 1273" d="M404.993,178.468H402.8a.549.549,0,0,1-.549-.549V172.8a.549.549,0,0,1,.549-.549h2.195a.549.549,0,0,1,.549.549v5.121A.549.549,0,0,1,404.993,178.468Zm-1.646-1.1h1.1v-4.024h-1.1Z" transform="translate(-6.98)" fill="#43425d"/>
      <path id="Trazado_1274" data-name="Trazado 1274" d="M401.672,185.347H376.8a.549.549,0,0,1,0-1.1h24.873a.549.549,0,1,1,0,1.1Z" transform="translate(0 -3.221)" fill="#43425d"/>
      <path id="Trazado_1275" data-name="Trazado 1275" d="M385.456,193.274H381.8a.549.549,0,0,1-.549-.549V189.8a.549.549,0,0,1,.549-.549h3.658a.549.549,0,0,1,.549.549v2.926A.549.549,0,0,1,385.456,193.274Zm-3.109-1.1h2.56v-1.829h-2.56Z" transform="translate(-1.342 -4.564)" fill="#43425d"/>
      <path id="Trazado_1276" data-name="Trazado 1276" d="M395.456,193.274H391.8a.549.549,0,0,1-.549-.549V189.8a.549.549,0,0,1,.549-.549h3.658a.549.549,0,0,1,.549.549v2.926A.549.549,0,0,1,395.456,193.274Zm-3.109-1.1h2.56v-1.829h-2.56Z" transform="translate(-4.027 -4.564)" fill="#43425d"/>
      <path id="Trazado_1277" data-name="Trazado 1277" d="M404.456,193.274H400.8a.549.549,0,0,1-.549-.549V189.8a.549.549,0,0,1,.549-.549h3.658a.549.549,0,0,1,.549.549v2.926A.549.549,0,0,1,404.456,193.274Zm-3.109-1.1h2.56v-1.829h-2.56Z" transform="translate(-6.443 -4.564)" fill="#43425d"/>
      <path id="Trazado_1278" data-name="Trazado 1278" d="M385.456,201.274H381.8a.549.549,0,0,1-.549-.549V197.8a.549.549,0,0,1,.549-.549h3.658a.549.549,0,0,1,.549.549v2.926A.549.549,0,0,1,385.456,201.274Zm-3.109-1.1h2.56v-1.829h-2.56Z" transform="translate(-1.342 -6.711)" fill="#43425d"/>
      <path id="Trazado_1279" data-name="Trazado 1279" d="M395.456,201.274H391.8a.549.549,0,0,1-.549-.549V197.8a.549.549,0,0,1,.549-.549h3.658a.549.549,0,0,1,.549.549v2.926A.549.549,0,0,1,395.456,201.274Zm-3.109-1.1h2.56v-1.829h-2.56Z" transform="translate(-4.027 -6.711)" fill="#43425d"/>
      <path id="Trazado_1280" data-name="Trazado 1280" d="M404.456,201.274H400.8a.549.549,0,0,1-.549-.549V197.8a.549.549,0,0,1,.549-.549h3.658a.549.549,0,0,1,.549.549v2.926A.549.549,0,0,1,404.456,201.274Zm-3.109-1.1h2.56v-1.829h-2.56Z" transform="translate(-6.443 -6.711)" fill="#43425d"/>
    </g>
  </g>
</svg>
