<svg xmlns="http://www.w3.org/2000/svg" width="39" height="27" viewBox="0 0 39 27">
  <g id="Grupo_1801" data-name="Grupo 1801" transform="translate(4476 -2701)">
    <g id="Grupo_1800" data-name="Grupo 1800" transform="translate(-4845.25 2463.75)">
      <path id="Trazado_1386" data-name="Trazado 1386" d="M389.421,270.047a.475.475,0,0,1-.475-.475v-.734a1.506,1.506,0,0,0-.313-.916l-1.708-2.213a2.457,2.457,0,0,1-.511-1.5v-4.389a2.11,2.11,0,0,0-2.108-2.108.108.108,0,0,0-.108.108v6.053a.475.475,0,0,1-.949,0v-6.053a1.058,1.058,0,0,1,1.057-1.057,3.061,3.061,0,0,1,3.057,3.057v4.389a1.509,1.509,0,0,0,.313.917l1.708,2.213a2.454,2.454,0,0,1,.511,1.5v.734A.475.475,0,0,1,389.421,270.047Z" transform="translate(-1.101 -6.797)" fill="#43425d"/>
      <path id="Trazado_1387" data-name="Trazado 1387" d="M380.725,265.82a.475.475,0,0,1-.475-.475v-12.33a8.017,8.017,0,0,1,1.694-4.917l2.212-2.676a.475.475,0,0,1,.732.605l-2.2,2.665a7.061,7.061,0,0,0-1.485,4.323v12.33A.475.475,0,0,1,380.725,265.82Z" transform="translate(0 -2.57)" fill="#43425d"/>
      <path id="Trazado_1388" data-name="Trazado 1388" d="M399.383,260.718h-6.962a.475.475,0,0,1,0-.949h6.487V239.2H387.2v9.019a.475.475,0,1,1-.949,0v-9.494a.475.475,0,0,1,.475-.475h12.658a.475.475,0,0,1,.475.475v21.519A.475.475,0,0,1,399.383,260.718Z" transform="translate(-2.203)" fill="#43425d"/>
      <path id="Trazado_1389" data-name="Trazado 1389" d="M396.573,257h-2.848a.475.475,0,0,1,0-.949h2.848a.475.475,0,1,0,0-.949h-1.9a1.424,1.424,0,1,1,0-2.848h2.848a.475.475,0,1,1,0,.949h-2.848a.475.475,0,1,0,0,.949h1.9a1.424,1.424,0,0,1,0,2.848Z" transform="translate(-4.772 -5.139)" fill="#43425d"/>
      <path id="Trazado_1390" data-name="Trazado 1390" d="M396.725,260.465a.475.475,0,0,1-.475-.475v-1.266a.475.475,0,0,1,.949,0v1.266A.475.475,0,0,1,396.725,260.465Z" transform="translate(-5.873 -7.342)" fill="#43425d"/>
      <path id="Trazado_1391" data-name="Trazado 1391" d="M396.725,252.465a.475.475,0,0,1-.475-.475v-1.266a.475.475,0,0,1,.949,0v1.266A.475.475,0,0,1,396.725,252.465Z" transform="translate(-5.873 -4.405)" fill="#43425d"/>
      <path id="Trazado_1392" data-name="Trazado 1392" d="M400.956,269.7a.475.475,0,0,1-.475-.475,2.864,2.864,0,0,1,2.86-2.861.475.475,0,1,1,0,.949,1.914,1.914,0,0,0-1.911,1.911A.474.474,0,0,1,400.956,269.7Z" transform="translate(-7.427 -10.321)" fill="#43425d"/>
      <path id="Trazado_1393" data-name="Trazado 1393" d="M388.84,243.585a.475.475,0,0,1,0-.949,1.914,1.914,0,0,0,1.911-1.911.475.475,0,0,1,.949,0A2.864,2.864,0,0,1,388.84,243.585Z" transform="translate(-2.979 -0.734)" fill="#43425d"/>
      <path id="Trazado_1394" data-name="Trazado 1394" d="M403.341,243.585a2.864,2.864,0,0,1-2.86-2.86.475.475,0,0,1,.949,0,1.913,1.913,0,0,0,1.911,1.911.475.475,0,1,1,0,.949Z" transform="translate(-7.427 -0.734)" fill="#43425d"/>
      <path id="Trazado_1395" data-name="Trazado 1395" d="M391.226,269.7a.475.475,0,0,1-.475-.475,1.914,1.914,0,0,0-1.911-1.911.475.475,0,0,1,0-.949,2.864,2.864,0,0,1,2.861,2.861A.475.475,0,0,1,391.226,269.7Z" transform="translate(-2.979 -10.321)" fill="#43425d"/>
    </g>
    <rect id="Rectángulo_2996" data-name="Rectángulo 2996" width="39" height="27" transform="translate(-4476 2701)" fill="none"/>
  </g>
</svg>
