<svg xmlns="http://www.w3.org/2000/svg" width="39" height="27" viewBox="0 0 39 27">
  <g id="Grupo_1811" data-name="Grupo 1811" transform="translate(4225 -2743)">
    <g id="asistencia_logo" transform="translate(-4521.807 2649)">
      <path id="Trazado_1510" data-name="Trazado 1510" d="M116.285,267.323a13.069,13.069,0,0,1-10.595-20.677,2.274,2.274,0,0,1,3.45-.272l1.576,1.576a2.276,2.276,0,0,1,0,3.215l-2.323,2.324a7.919,7.919,0,0,0,8.675,8.662l2.317-2.317h0a2.275,2.275,0,0,1,3.214,0l1.57,1.571a2.272,2.272,0,0,1-.271,3.449A13,13,0,0,1,116.285,267.323Zm-8.755-20.573c-.034,0-.067,0-.1,0a1.219,1.219,0,0,0-.892.5,12,12,0,0,0,16.752,16.752,1.216,1.216,0,0,0,.5-.893,1.233,1.233,0,0,0-.358-.973l-1.57-1.571a1.234,1.234,0,0,0-1.739,0l-2.447,2.447a.519.519,0,0,1-.306.149,8.963,8.963,0,0,1-9.994-9.98.521.521,0,0,1,.149-.307l2.454-2.454a1.232,1.232,0,0,0,0-1.739l-1.576-1.575A1.236,1.236,0,0,0,107.53,246.751Zm9.778,15.9h0Z" transform="translate(199.585 -147.215)" fill="#43425d"/>
      <path id="Trazado_1511" data-name="Trazado 1511" d="M129.485,272.062a.521.521,0,0,1-.369-.153l-3.711-3.711a.522.522,0,1,1,.738-.738l3.71,3.711a.522.522,0,0,1-.369.891Z" transform="translate(192.882 -153.788)" fill="#43425d"/>
      <path id="Trazado_1512" data-name="Trazado 1512" d="M110.091,252.668a.518.518,0,0,1-.369-.153l-3.711-3.711a.522.522,0,0,1,.738-.737l3.71,3.711a.522.522,0,0,1-.369.891Z" transform="translate(198.783 -147.887)" fill="#43425d"/>
      <path id="Trazado_1513" data-name="Trazado 1513" d="M127.386,258.685a.522.522,0,0,1-.456-.774,7.932,7.932,0,0,0-10.781-10.78.522.522,0,1,1-.5-.913,8.975,8.975,0,0,1,12.2,12.2A.52.52,0,0,1,127.386,258.685Z" transform="translate(195.887 -147.032)" fill="#43425d"/>
      <path id="Trazado_1514" data-name="Trazado 1514" d="M129.048,259.857a.522.522,0,0,1-.431-.816,12,12,0,0,0-16.672-16.671.522.522,0,0,1-.588-.863,13.044,13.044,0,0,1,18.122,18.122A.52.52,0,0,1,129.048,259.857Z" transform="translate(197.179 -145.25)" fill="#43425d"/>
      <g id="Grupo_1628" data-name="Grupo 1628" transform="translate(311.131 103.275)">
        <path id="Trazado_1515" data-name="Trazado 1515" d="M119.927,259.681H115.71a.522.522,0,0,1-.369-.891c.178-.178.442-.408.751-.676,1.109-.961,3.171-2.748,2.668-3.8a1.089,1.089,0,0,0-1.19-.591,1.223,1.223,0,0,0-1.061,1,.522.522,0,1,1-1.033-.144,2.253,2.253,0,0,1,1.934-1.889,2.123,2.123,0,0,1,2.292,1.173c.79,1.653-1.138,3.479-2.62,4.772h2.846a.522.522,0,0,1,0,1.044Z" transform="translate(-115.187 -252.607)" fill="#43425d"/>
        <path id="Trazado_1516" data-name="Trazado 1516" d="M126.95,257.569h-4.166a.522.522,0,0,1-.424-.825l2.816-3.943a.522.522,0,0,1,.849.607l-2.227,3.118h3.152a.522.522,0,1,1,0,1.044Z" transform="translate(-117.34 -252.582)" fill="#43425d"/>
        <path id="Trazado_1517" data-name="Trazado 1517" d="M126.772,259.859a.522.522,0,0,1-.522-.522v-5.566a.522.522,0,0,1,1.044,0v5.566A.522.522,0,0,1,126.772,259.859Z" transform="translate(-118.554 -252.785)" fill="#43425d"/>
      </g>
    </g>
    <rect id="Rectángulo_2991" data-name="Rectángulo 2991" width="39" height="27" transform="translate(-4225 2743)" fill="none"/>
  </g>
</svg>
