<svg xmlns="http://www.w3.org/2000/svg" width="39" height="27" viewBox="0 0 39 27">
  <g id="Grupo_1799" data-name="Grupo 1799" transform="translate(4476 -2605)">
    <g id="Grupo_1791" data-name="Grupo 1791" transform="translate(-4844.25 2434.75)">
      <path id="Trazado_1356" data-name="Trazado 1356" d="M384.254,175.485c-2.6,0-7-.446-7-2.117s4.4-2.117,7-2.117,7,.446,7,2.117S386.855,175.485,384.254,175.485Zm0-3.258c-3.679,0-5.88.754-6.029,1.158.149.369,2.351,1.123,6.029,1.123,3.626,0,5.818-.732,6.021-1.14C390.071,172.96,387.88,172.227,384.254,172.227Zm6.029,1.158h0Z" fill="#43425d"/>
      <path id="Trazado_1357" data-name="Trazado 1357" d="M384.254,179.593c-3.374,0-7-.762-7-2.437v-2.417a.489.489,0,0,1,.977,0v2.417c0,.437,2.05,1.459,6.027,1.459s6.027-1.023,6.027-1.459v-2.417a.489.489,0,0,1,.977,0v2.417C391.258,178.83,387.628,179.593,384.254,179.593Z" transform="translate(0 -1.045)" fill="#43425d"/>
      <path id="Trazado_1358" data-name="Trazado 1358" d="M384.254,184.244c-3.374,0-7-.762-7-2.437v-3.069a.489.489,0,0,1,.977,0v3.069c0,.437,2.05,1.459,6.027,1.459s6.027-1.023,6.027-1.459v-3.069a.489.489,0,0,1,.977,0v3.069C391.258,183.482,387.628,184.244,384.254,184.244Z" transform="translate(0 -2.439)" fill="#43425d"/>
      <path id="Trazado_1359" data-name="Trazado 1359" d="M384.23,188.651c-3.362,0-6.98-.76-6.98-2.43v-3.483a.489.489,0,0,1,.977,0v3.483c0,.435,2.043,1.452,6,1.452a20.1,20.1,0,0,0,2.324-.131.483.483,0,0,1,.543.427.489.489,0,0,1-.428.543A20.915,20.915,0,0,1,384.23,188.651Z" transform="translate(0 -3.833)" fill="#43425d"/>
      <path id="Trazado_1360" data-name="Trazado 1360" d="M397.739,186.182a.489.489,0,0,1-.489-.489v-1.955a.489.489,0,0,1,.977,0v1.955A.489.489,0,0,1,397.739,186.182Z" transform="translate(-6.969 -4.182)" fill="#43425d"/>
      <path id="Trazado_1361" data-name="Trazado 1361" d="M384.23,193.3c-3.362,0-6.98-.76-6.98-2.43v-4.136a.489.489,0,0,1,.977,0v4.136c0,.434,2.043,1.452,6,1.452l.294,0a.507.507,0,0,1,.5.481.488.488,0,0,1-.481.5Z" transform="translate(0 -5.227)" fill="#43425d"/>
      <path id="Trazado_1362" data-name="Trazado 1362" d="M384.23,198.44c-3.362,0-6.98-.76-6.98-2.43v-3.271a.489.489,0,0,1,.977,0v3.271c0,.435,2.043,1.452,6,1.452.229,0,.455,0,.678-.01a.482.482,0,0,1,.5.473.488.488,0,0,1-.473.5C384.706,198.436,384.47,198.44,384.23,198.44Z" transform="translate(0 -7.318)" fill="#43425d"/>
      <path id="Trazado_1363" data-name="Trazado 1363" d="M397.6,201.955a6.352,6.352,0,1,1,6.352-6.352A6.36,6.36,0,0,1,397.6,201.955Zm0-11.728a5.375,5.375,0,1,0,5.375,5.375A5.381,5.381,0,0,0,397.6,190.227Z" transform="translate(-4.879 -6.273)" fill="#43425d"/>
      <path id="Trazado_1364" data-name="Trazado 1364" d="M400.345,200.44h-2.606a.489.489,0,0,1,0-.977h2.606a.814.814,0,1,0,0-1.629h-1.3a1.792,1.792,0,1,1,0-3.583h2.606a.489.489,0,0,1,0,.977h-2.606a.814.814,0,1,0,0,1.629h1.3a1.792,1.792,0,1,1,0,3.583Z" transform="translate(-6.969 -8.015)" fill="#43425d"/>
      <path id="Trazado_1365" data-name="Trazado 1365" d="M400.739,194.53a.489.489,0,0,1-.489-.489v-1.3a.489.489,0,0,1,.977,0v1.3A.489.489,0,0,1,400.739,194.53Z" transform="translate(-8.015 -7.318)" fill="#43425d"/>
      <path id="Trazado_1366" data-name="Trazado 1366" d="M400.739,204.53a.489.489,0,0,1-.489-.489v-1.3a.489.489,0,0,1,.977,0v1.3A.489.489,0,0,1,400.739,204.53Z" transform="translate(-8.015 -10.803)" fill="#43425d"/>
    </g>
    <rect id="Rectángulo_2994" data-name="Rectángulo 2994" width="39" height="27" transform="translate(-4476 2605)" fill="none"/>
  </g>
</svg>
