<svg xmlns="http://www.w3.org/2000/svg" width="39" height="27" viewBox="0 0 39 27">
  <g id="Grupo_1805" data-name="Grupo 1805" transform="translate(4302 -2701)">
    <g id="Grupo_1804" data-name="Grupo 1804" transform="translate(-4602.25 2463.75)">
      <path id="Trazado_1490" data-name="Trazado 1490" d="M314.9,263.536h-4a1.658,1.658,0,0,1-1.656-1.656V242.906a1.658,1.658,0,0,1,1.656-1.656h3.35a.484.484,0,0,1,0,.969h-3.35a.689.689,0,0,0-.687.687v18.973a.689.689,0,0,0,.687.687h4a.484.484,0,1,1,0,.969Z" transform="translate(0 -1.416)" fill="#43425d"/>
      <path id="Trazado_1491" data-name="Trazado 1491" d="M334.256,249.97a.485.485,0,0,1-.484-.484v-6.58a.689.689,0,0,0-.687-.687h-3.35a.484.484,0,0,1,0-.969h3.35a1.658,1.658,0,0,1,1.656,1.656v6.58A.485.485,0,0,1,334.256,249.97Z" transform="translate(-7.081 -1.416)" fill="#43425d"/>
      <path id="Trazado_1492" data-name="Trazado 1492" d="M324.486,241.449h-7.751a.485.485,0,0,1-.484-.484v-1.98a1.736,1.736,0,0,1,1.734-1.734h5.252a1.736,1.736,0,0,1,1.734,1.734v1.98A.485.485,0,0,1,324.486,241.449Zm-7.267-.969H324v-1.5a.766.766,0,0,0-.765-.765h-5.252a.766.766,0,0,0-.765.765Z" transform="translate(-2.478 0)" fill="#43425d"/>
      <path id="Trazado_1493" data-name="Trazado 1493" d="M327.84,258.219h-7.106a.484.484,0,0,1,0-.969h7.106a.484.484,0,0,1,0,.969Z" transform="translate(-3.894 -7.081)" fill="#43425d"/>
      <path id="Trazado_1494" data-name="Trazado 1494" d="M328.486,250.219h-7.752a.484.484,0,0,1,0-.969h7.752a.484.484,0,0,1,0,.969Z" transform="translate(-3.894 -4.248)" fill="#43425d"/>
      <path id="Trazado_1495" data-name="Trazado 1495" d="M325.256,262.219h-4.522a.484.484,0,1,1,0-.969h4.522a.484.484,0,1,1,0,.969Z" transform="translate(-3.894 -8.497)" fill="#43425d"/>
      <path id="Trazado_1496" data-name="Trazado 1496" d="M326.548,254.219h-5.814a.484.484,0,0,1,0-.969h5.814a.484.484,0,0,1,0,.969Z" transform="translate(-3.894 -5.665)" fill="#43425d"/>
      <path id="Trazado_1497" data-name="Trazado 1497" d="M314.639,259.675h-.012a.484.484,0,0,1-.347-.16l-.9-.991a.484.484,0,0,1,.718-.65l.556.614,1.355-1.355a.485.485,0,0,1,.685.685l-1.715,1.715A.488.488,0,0,1,314.639,259.675Z" transform="translate(-1.419 -6.989)" fill="#43425d"/>
      <path id="Trazado_1498" data-name="Trazado 1498" d="M314.722,251.077h-.012a.482.482,0,0,1-.347-.16l-.831-.917a.484.484,0,1,1,.718-.65l.49.54,1.229-1.229a.485.485,0,1,1,.685.685l-1.589,1.588A.488.488,0,0,1,314.722,251.077Z" transform="translate(-1.472 -3.99)" fill="#43425d"/>
      <g id="Grupo_1593" data-name="Grupo 1593" transform="translate(316.308 249.554)">
        <path id="Trazado_1499" data-name="Trazado 1499" d="M322.43,270.043a.485.485,0,0,1-.343-.143l-.594-.594a.487.487,0,0,1-.132-.442l.163-.776a6.128,6.128,0,0,1,1.665-3.077l8.053-8.053a2.258,2.258,0,0,1,3.194,3.194l-8.052,8.052a6.124,6.124,0,0,1-3.077,1.666l-.776.163A.517.517,0,0,1,322.43,270.043Zm-.066-1.236.224.224.519-.11h0a5.149,5.149,0,0,0,2.592-1.4l8.053-8.053a1.289,1.289,0,1,0-1.824-1.824l-8.053,8.053a5.147,5.147,0,0,0-1.4,2.591Z" transform="translate(-320.593 -256.298)" fill="#43425d"/>
        <path id="Trazado_1500" data-name="Trazado 1500" d="M338.738,261.276a.483.483,0,0,1-.342-.142l-2.508-2.508a.484.484,0,1,1,.685-.685l2.508,2.508a.485.485,0,0,1-.342.828Z" transform="translate(-325.689 -256.829)" fill="#43425d"/>
        <path id="Trazado_1501" data-name="Trazado 1501" d="M331.889,268.124a.482.482,0,0,1-.342-.141l-2.509-2.508a.485.485,0,1,1,.685-.685l2.509,2.508a.484.484,0,0,1-.343.827Z" transform="translate(-323.264 -259.254)" fill="#43425d"/>
        <path id="Trazado_1502" data-name="Trazado 1502" d="M335.455,268.352a.485.485,0,0,1-.343-.827l3.791-3.79a.424.424,0,0,0,0-.6.432.432,0,0,0-.6,0l-1.035,1.035a.484.484,0,0,1-.685-.685l1.035-1.035a1.391,1.391,0,0,1,1.968,1.968l-3.791,3.79A.485.485,0,0,1,335.455,268.352Z" transform="translate(-325.414 -258.333)" fill="#43425d"/>
        <path id="Trazado_1503" data-name="Trazado 1503" d="M320.661,277.64a.484.484,0,0,1-.343-.827l1.056-1.056a.485.485,0,0,1,.685.685L321,277.5A.481.481,0,0,1,320.661,277.64Z" transform="translate(-320.177 -263.137)" fill="#43425d"/>
      </g>
    </g>
    <rect id="Rectángulo_2996" data-name="Rectángulo 2996" width="39" height="27" transform="translate(-4302 2701)" fill="none"/>
  </g>
</svg>
