<svg xmlns="http://www.w3.org/2000/svg" width="39" height="27" viewBox="0 0 39 27">
  <g id="Grupo_1803" data-name="Grupo 1803" transform="translate(4693 -2691)">
    <g id="Grupo_1802" data-name="Grupo 1802" transform="translate(-4926.25 2383.75)">
      <path id="Trazado_1480" data-name="Trazado 1480" d="M257.474,324.615" transform="translate(-5.465 -4.652)" fill="#43425d" stroke="#444" stroke-linecap="round" stroke-linejoin="round" stroke-width="1.5"/>
      <path id="Trazado_1481" data-name="Trazado 1481" d="M266.965,319.344H249.787a.537.537,0,0,1-.537-.537v-10.02a.537.537,0,0,1,.537-.537h17.178a.537.537,0,0,1,.537.537v10.02A.537.537,0,0,1,266.965,319.344Zm-16.641-1.074h16.1v-8.947h-16.1Z" transform="translate(-3.127)" fill="#43425d"/>
      <path id="Trazado_1482" data-name="Trazado 1482" d="M260.65,318.05a3.4,3.4,0,1,1,3.4-3.4A3.4,3.4,0,0,1,260.65,318.05Zm0-5.726a2.326,2.326,0,1,0,2.326,2.326A2.329,2.329,0,0,0,260.65,312.324Z" transform="translate(-5.401 -0.853)" fill="#43425d"/>
      <path id="Trazado_1483" data-name="Trazado 1483" d="M271.218,312.755a1.9,1.9,0,0,1-1.968-1.968.537.537,0,0,1,1.074,0,.838.838,0,0,0,.895.895.537.537,0,0,1,0,1.074Z" transform="translate(-8.812 -0.569)" fill="#43425d"/>
      <path id="Trazado_1484" data-name="Trazado 1484" d="M253.218,320.755a.537.537,0,0,1-.537-.537.838.838,0,0,0-.895-.895.537.537,0,1,1,0-1.074,1.9,1.9,0,0,1,1.968,1.968A.537.537,0,0,1,253.218,320.755Z" transform="translate(-3.695 -2.843)" fill="#43425d"/>
      <path id="Trazado_1485" data-name="Trazado 1485" d="M251.787,312.755a.537.537,0,1,1,0-1.074.838.838,0,0,0,.895-.895.537.537,0,1,1,1.074,0A1.9,1.9,0,0,1,251.787,312.755Z" transform="translate(-3.695 -0.569)" fill="#43425d"/>
      <path id="Trazado_1486" data-name="Trazado 1486" d="M269.787,320.755a.537.537,0,0,1-.537-.537,1.9,1.9,0,0,1,1.968-1.968.537.537,0,0,1,0,1.074.838.838,0,0,0-.895.895A.537.537,0,0,1,269.787,320.755Z" transform="translate(-8.812 -2.843)" fill="#43425d"/>
      <g id="Grupo_1590" data-name="Grupo 1590" transform="translate(238.25 321.153)">
        <path id="Trazado_1487" data-name="Trazado 1487" d="M253.081,338.479a12.809,12.809,0,0,1-3.317-.4l-1.132-.338a.537.537,0,0,1,.308-1.029l1.108.331a11.619,11.619,0,0,0,3.033.365,14.868,14.868,0,0,0,5-.83l9.752-4.1c.208-.114.56-.449.428-.769a.72.72,0,0,0-.807-.362l-5.616,1.2a.537.537,0,0,1-.223-1.05l5.6-1.193a1.778,1.778,0,0,1,2.04,1,1.748,1.748,0,0,1-.958,2.146l-9.818,4.133A15.962,15.962,0,0,1,253.081,338.479Z" transform="translate(-241.092 -327.405)" fill="#43425d"/>
        <path id="Trazado_1488" data-name="Trazado 1488" d="M243.8,339.06a.571.571,0,0,1-.13-.016.534.534,0,0,1-.342-.267l-5.01-9.3a.536.536,0,0,1,.175-.7l2.147-1.431a.536.536,0,0,1,.77.193l5.01,9.3a.536.536,0,0,1-.175.7l-2.147,1.432A.537.537,0,0,1,243.8,339.06Zm-4.306-9.666,4.5,8.356,1.25-.833-4.5-8.356Z" transform="translate(-238.25 -326.554)" fill="#43425d"/>
        <path id="Trazado_1489" data-name="Trazado 1489" d="M258.175,333.057h-6.8a.537.537,0,0,1,0-1.074h6.8a1.253,1.253,0,0,0,0-2.505h-4.652a.539.539,0,0,1-.322-.107l-.611-.458a8.037,8.037,0,0,0-7.887-.931l-1.7.737a.537.537,0,1,1-.427-.985l1.7-.737a9.129,9.129,0,0,1,8.958,1.059l.467.35h4.473a2.326,2.326,0,0,1,0,4.652Z" transform="translate(-239.387 -326.278)" fill="#43425d"/>
      </g>
    </g>
    <rect id="Rectángulo_2989" data-name="Rectángulo 2989" width="39" height="27" transform="translate(-4693 2691)" fill="none"/>
  </g>
</svg>
