<svg xmlns="http://www.w3.org/2000/svg" width="36.88" height="36.879" viewBox="0 0 36.88 36.879">
  <g id="logofacebook" transform="translate(0 0)">
    <path id="Trazado_1469" data-name="Trazado 1469" d="M388.644,164.634a18.439,18.439,0,1,1,18.441-18.439A18.46,18.46,0,0,1,388.644,164.634Zm0-35.48a17.041,17.041,0,1,0,17.043,17.042A17.06,17.06,0,0,0,388.644,129.153Z" transform="translate(-370.205 -127.755)" fill="#43425d"/>
    <path id="Trazado_1470" data-name="Trazado 1470" d="M386.923,157.479h4.318V146.665h3.013l.322-3.621h-3.334v-2.062c0-.854.172-1.191,1-1.191h2.337v-3.758h-2.991c-3.213,0-4.662,1.415-4.662,4.124v2.887h-2.247v3.666h2.247Z" transform="translate(-371.186 -128.316)" fill="#43425d"/>
  </g>
</svg>
