<svg xmlns="http://www.w3.org/2000/svg" width="39" height="27" viewBox="0 0 39 27">
  <g id="Grupo_1798" data-name="Grupo 1798" transform="translate(4527 -2682)">
    <rect id="Rectángulo_2989" data-name="Rectángulo 2989" width="39" height="27" transform="translate(-4527 2682)" fill="none"/>
    <g id="Grupo_1797" data-name="Grupo 1797" transform="translate(-16 -35)">
      <path id="Trazado_1518" data-name="Trazado 1518" d="M330.552,129.067A.522.522,0,0,1,330.3,129l-2.54-1.389L325.217,129a.526.526,0,0,1-.5,0l-2.543-1.389L319.626,129a.526.526,0,0,1-.5,0l-2.549-1.39L314.025,129a.525.525,0,0,1-.775-.461V104.774a.524.524,0,0,1,.775-.46l2.54,1.389,2.544-1.389a.526.526,0,0,1,.5,0l2.543,1.389,2.545-1.389a.526.526,0,0,1,.5,0l2.549,1.39,2.55-1.39a.524.524,0,0,1,.775.461v23.768a.524.524,0,0,1-.524.524Zm-13.977-2.575a.524.524,0,0,1,.251.064l2.55,1.39,2.544-1.39a.526.526,0,0,1,.5,0l2.544,1.39,2.543-1.39a.526.526,0,0,1,.5,0l2.016,1.1v-22l-2.024,1.1a.526.526,0,0,1-.5,0l-2.549-1.39-2.544,1.39a.526.526,0,0,1-.5,0l-2.544-1.39-2.543,1.39a.526.526,0,0,1-.5,0l-2.016-1.1v22l2.024-1.1A.529.529,0,0,1,316.575,126.492Z" transform="translate(-4813.25 2613.75)" fill="#43425d"/>
      <path id="Trazado_1519" data-name="Trazado 1519" d="M329.765,114.3h-6.991a.524.524,0,0,1,0-1.049h6.991a.524.524,0,1,1,0,1.049Z" transform="translate(-4815.958 2611.042)" fill="#43425d"/>
      <path id="Trazado_1520" data-name="Trazado 1520" d="M328.26,123.3H317.774a.524.524,0,0,1,0-1.049H328.26a.524.524,0,0,1,0,1.049Z" transform="translate(-4814.453 2608.333)" fill="#43425d"/>
      <path id="Trazado_1521" data-name="Trazado 1521" d="M324.765,128.3h-6.991a.524.524,0,0,1,0-1.049h6.991a.524.524,0,1,1,0,1.049Z" transform="translate(-4814.453 2606.829)" fill="#43425d"/>
      <path id="Trazado_1522" data-name="Trazado 1522" d="M327.668,118.3h-4.893a.524.524,0,0,1,0-1.049h4.893a.524.524,0,0,1,0,1.049Z" transform="translate(-4815.958 2609.838)" fill="#43425d"/>
      <path id="Trazado_1523" data-name="Trazado 1523" d="M319.172,114.3h-1.4a.524.524,0,0,1,0-1.049h1.4a.524.524,0,0,1,0,1.049Z" transform="translate(-4814.453 2611.042)" fill="#43425d"/>
      <path id="Trazado_1524" data-name="Trazado 1524" d="M319.172,118.3h-1.4a.524.524,0,0,1,0-1.049h1.4a.524.524,0,0,1,0,1.049Z" transform="translate(-4814.453 2609.838)" fill="#43425d"/>
    </g>
  </g>
</svg>
