<svg xmlns="http://www.w3.org/2000/svg" width="36.88" height="36.879" viewBox="0 0 36.88 36.879">
  <g id="lagotwitter" transform="translate(0 0)">
    <path id="Trazado_1467" data-name="Trazado 1467" d="M277.806,164.634a18.439,18.439,0,1,1,18.44-18.439A18.46,18.46,0,0,1,277.806,164.634Zm0-35.48a17.041,17.041,0,1,0,17.042,17.042A17.061,17.061,0,0,0,277.806,129.153Z" transform="translate(-259.366 -127.755)" fill="#43425d"/>
    <path id="Trazado_1468" data-name="Trazado 1468" d="M269.007,152.916a11.031,11.031,0,0,0,16.97-9.795,7.862,7.862,0,0,0,1.934-2.008,7.736,7.736,0,0,1-2.227.611,3.884,3.884,0,0,0,1.7-2.146,7.781,7.781,0,0,1-2.462.942,3.881,3.881,0,0,0-6.609,3.538,11.007,11.007,0,0,1-7.994-4.052,3.883,3.883,0,0,0,1.2,5.178,3.866,3.866,0,0,1-1.757-.486,3.884,3.884,0,0,0,3.111,3.853,3.883,3.883,0,0,1-1.751.065,3.88,3.88,0,0,0,3.623,2.694A7.8,7.8,0,0,1,269.007,152.916Z" transform="translate(-260.02 -128.537)" fill="#43425d"/>
  </g>
</svg>
