<svg xmlns="http://www.w3.org/2000/svg" width="39" height="27" viewBox="0 0 39 27">
  <g id="Grupo_1798" data-name="Grupo 1798" transform="translate(4548 -2652)">
    <g id="Grupo_1789" data-name="Grupo 1789" transform="translate(-4915.25 2551.701)">
      <path id="Trazado_1371" data-name="Trazado 1371" d="M398.423,128.281H385.28a2.032,2.032,0,0,1-2.03-2.03v-9.288a.453.453,0,1,1,.905,0v9.288a1.126,1.126,0,0,0,1.124,1.125h13.143a1.126,1.126,0,0,0,1.125-1.125V108.28a1.126,1.126,0,0,0-1.125-1.125h-5.666a.453.453,0,1,1,0-.905h5.666a2.032,2.032,0,0,1,2.03,2.03v17.972A2.032,2.032,0,0,1,398.423,128.281Z" transform="translate(-2.775 -1.982)" fill="#43425d"/>
      <path id="Trazado_1372" data-name="Trazado 1372" d="M405.946,117.155H398.7a.453.453,0,0,1,0-.905h7.243a.453.453,0,0,1,0,.905Z" transform="translate(-8.721 -5.946)" fill="#43425d"/>
      <path id="Trazado_1373" data-name="Trazado 1373" d="M400.91,112.155H399.7a.453.453,0,0,1,0-.905h1.207a.453.453,0,1,1,0,.905Z" transform="translate(-9.117 -3.964)" fill="#43425d"/>
      <path id="Trazado_1374" data-name="Trazado 1374" d="M405.91,112.155H404.7a.453.453,0,1,1,0-.905h1.207a.453.453,0,0,1,0,.905Z" transform="translate(-11.099 -3.964)" fill="#43425d"/>
      <path id="Trazado_1375" data-name="Trazado 1375" d="M397.721,122.966H394.7a.453.453,0,0,1-.453-.453V120.7a.453.453,0,0,1,.453-.453h3.018a.453.453,0,0,1,.453.453v1.811A.453.453,0,0,1,397.721,122.966Zm-2.565-.905h2.113v-.905h-2.113Z" transform="translate(-7.135 -7.532)" fill="#43425d"/>
      <path id="Trazado_1376" data-name="Trazado 1376" d="M405.721,122.966H402.7a.453.453,0,0,1-.453-.453V120.7a.453.453,0,0,1,.453-.453h3.018a.453.453,0,0,1,.453.453v1.811A.453.453,0,0,1,405.721,122.966Zm-2.565-.905h2.113v-.905h-2.113Z" transform="translate(-10.306 -7.532)" fill="#43425d"/>
      <path id="Trazado_1377" data-name="Trazado 1377" d="M389.721,128.966H386.7a.453.453,0,0,1-.453-.453V126.7a.453.453,0,0,1,.453-.453h3.018a.453.453,0,0,1,.453.453v1.811A.453.453,0,0,1,389.721,128.966Zm-2.565-.905h2.113v-.905h-2.113Z" transform="translate(-3.964 -9.91)" fill="#43425d"/>
      <path id="Trazado_1378" data-name="Trazado 1378" d="M397.721,128.966H394.7a.453.453,0,0,1-.453-.453V126.7a.453.453,0,0,1,.453-.453h3.018a.453.453,0,0,1,.453.453v1.811A.453.453,0,0,1,397.721,128.966Zm-2.565-.905h2.113v-.905h-2.113Z" transform="translate(-7.135 -9.91)" fill="#43425d"/>
      <path id="Trazado_1379" data-name="Trazado 1379" d="M405.721,128.966H402.7a.453.453,0,0,1-.453-.453V126.7a.453.453,0,0,1,.453-.453h3.018a.453.453,0,0,1,.453.453v1.811A.453.453,0,0,1,405.721,128.966Zm-2.565-.905h2.113v-.905h-2.113Z" transform="translate(-10.306 -9.91)" fill="#43425d"/>
      <path id="Trazado_1380" data-name="Trazado 1380" d="M389.721,135.966H386.7a.453.453,0,0,1-.453-.453V133.7a.453.453,0,0,1,.453-.453h3.018a.453.453,0,0,1,.453.453v1.811A.453.453,0,0,1,389.721,135.966Zm-2.565-.905h2.113v-.905h-2.113Z" transform="translate(-3.964 -12.685)" fill="#43425d"/>
      <path id="Trazado_1381" data-name="Trazado 1381" d="M402.549,135.966H394.7a.453.453,0,0,1-.453-.453V133.7a.453.453,0,0,1,.453-.453h7.847a.453.453,0,0,1,.453.453v1.811A.453.453,0,0,1,402.549,135.966Zm-7.394-.905H402.1v-.905h-6.941Z" transform="translate(-7.135 -12.685)" fill="#43425d"/>
      <path id="Trazado_1382" data-name="Trazado 1382" d="M382.135,113.02a5.885,5.885,0,1,1,5.885-5.885A5.892,5.892,0,0,1,382.135,113.02Zm0-10.865a4.98,4.98,0,1,0,4.98,4.98A4.985,4.985,0,0,0,382.135,102.155Z" transform="translate(0)" fill="#43425d"/>
      <path id="Trazado_1383" data-name="Trazado 1383" d="M385.117,111.984H382.7a.453.453,0,0,1,0-.905h2.414a.754.754,0,0,0,0-1.509H383.91a1.66,1.66,0,0,1,0-3.32h2.414a.453.453,0,1,1,0,.905H383.91a.754.754,0,1,0,0,1.509h1.207a1.66,1.66,0,0,1,0,3.32Z" transform="translate(-2.378 -1.982)" fill="#43425d"/>
      <path id="Trazado_1384" data-name="Trazado 1384" d="M385.7,106.363a.453.453,0,0,1-.453-.453V104.7a.453.453,0,1,1,.905,0v1.207A.453.453,0,0,1,385.7,106.363Z" transform="translate(-3.568 -1.189)" fill="#43425d"/>
      <path id="Trazado_1385" data-name="Trazado 1385" d="M385.7,116.363a.453.453,0,0,1-.453-.453V114.7a.453.453,0,1,1,.905,0v1.207A.453.453,0,0,1,385.7,116.363Z" transform="translate(-3.568 -5.153)" fill="#43425d"/>
    </g>
    <rect id="Rectángulo_2994" data-name="Rectángulo 2994" width="39" height="27" transform="translate(-4548 2652)" fill="none"/>
  </g>
</svg>
