<?xml version="1.0" encoding="utf-8"?>
<!-- Generator: Adobe Illustrator 24.1.3, SVG Export Plug-In . SVG Version: 6.00 Build 0)  -->
<svg version="1.1" id="Capa_1" xmlns="http://www.w3.org/2000/svg" xmlns:xlink="http://www.w3.org/1999/xlink" x="0px" y="0px"
	 viewBox="0 0 75 55" style="enable-background:new 0 0 75 55;" xml:space="preserve">
<style type="text/css">
	.st0{fill-rule:evenodd;clip-rule:evenodd;fill:#FFFFFF;}
	.st1{fill:#FFFFFF;}
	.st2{font-family:'ITCAvantGardePro-Md';}
	.st3{font-size:9px;}
</style>
<g id="Grupo_1367" transform="translate(-112.264 -69)">
	<path id="Trazado_916" class="st0" d="M150.4,110.8l9.1-5.2l9.1-5.2V79.5l-17.1-9.9l-1-0.6v5.6l1,0.6l12.3,7.1v15.4l-6.7,3.8
		l-6.7,3.8l-6.7-3.8l-6.7-3.8V82.2l4.3-2.5v15.7l4.5,2.6l4.5,2.6l4.5-2.6l4.5-2.6V85l-4.7-2.7l-3.3-1.9l-1-0.6v5.8l4,2.3v4.6l-4,2.3
		l-4-2.3V71.3l0,0l-5,2.9l-9.1,5.2v20.9l9.1,5.2L150.4,110.8z"/>
	<text transform="matrix(1 0 0 1 112.264 122)" class="st1 st2 st3">Company Name</text>
</g>
</svg>
