<svg xmlns="http://www.w3.org/2000/svg" width="92" height="66" viewBox="0 0 92 66">
  <g id="Grupo_11" data-name="Grupo 11" transform="translate(-112.264 -69)">
    <path id="Trazado_916" data-name="Trazado 916" d="M187.808,92.02l10.872-6.276,10.872-6.276V54.36L189.036,42.515l-1.228-.708V48.47l1.228.708,14.745,8.513V76.136l-7.986,4.611-7.986,4.612-7.986-4.612-7.987-4.611V57.692l5.1-2.946V73.564l5.436,3.138,5.435,3.137,5.435-3.137,5.435-3.138V61.013l-5.652-3.264-3.989-2.3-1.228-.708v6.984l4.821,2.784v5.567l-4.821,2.784-4.821-2.784V44.59h0l-6.051,3.493L166.065,54.36V79.467l10.871,6.276Z" transform="translate(-29.801 27.193)" fill="#fff" fill-rule="evenodd"/>
    <text id="Company_Name" data-name="Company Name" transform="translate(112.264 132)" fill="#fff" font-size="11" font-family="ITCAvantGardePro-Md, ITC Avant Garde Gothic Pro" font-weight="500"><tspan x="0" y="0">Company Name</tspan></text>
  </g>
</svg>
