<svg xmlns="http://www.w3.org/2000/svg" width="75" height="55" viewBox="0 0 75 55">
  <g id="Grupo_1367" data-name="Grupo 1367" transform="translate(-112.264 -69)">
    <path id="Trazado_916" data-name="Trazado 916" d="M184.184,83.651l9.06-5.23,9.06-5.23V52.268l-17.1-9.871-1.023-.59v5.552l1.023.59L197.5,55.044v15.37l-6.655,3.842L184.184,78.1l-6.655-3.843-6.655-3.842V55.044l4.252-2.455V68.271l4.53,2.615,4.529,2.614,4.529-2.614,4.529-2.615V57.812l-4.71-2.72-3.324-1.92-1.023-.59V58.4l4.018,2.32v4.639l-4.018,2.32-4.018-2.32V44.126h0l-5.042,2.911-9.059,5.232V73.191l9.059,5.23Z" transform="translate(-33.801 27.193)" fill="#14141e" fill-rule="evenodd"/>
    <text id="Company_Name" data-name="Company Name" transform="translate(112.264 122)" fill="#14141e" font-size="9" font-family="ITCAvantGardePro-Md, ITC Avant Garde Gothic Pro" font-weight="500"><tspan x="0" y="0">Company Name</tspan></text>
  </g>
</svg>
