<svg xmlns="http://www.w3.org/2000/svg" width="133" height="105" viewBox="0 0 133 105">
  <g id="Grupo_1814" data-name="Grupo 1814" transform="translate(-958 -131)">
    <path id="Trazado_916" data-name="Trazado 916" d="M201.26,123.086l17.6-10.159,17.6-10.159V62.127L203.248,42.954l-1.988-1.147V52.592l1.988,1.147,23.867,13.78V97.374l-12.928,7.463L201.26,112.3l-12.928-7.465-12.928-7.463V67.519l8.259-4.769V93.211l8.8,5.08,8.8,5.078,8.8-5.078,8.8-5.08V72.9l-9.149-5.283-6.457-3.729-1.988-1.147v11.3l7.8,4.506v9.011l-7.8,4.506-7.8-4.506V46.311h0l-9.794,5.654-17.6,10.162v40.64l17.6,10.159Z" transform="translate(826.763 89.193)" fill="#14141e" fill-rule="evenodd"/>
    <text id="Company_Name" data-name="Company Name" transform="translate(958 232)" fill="#14141e" font-size="16" font-family="ITCAvantGardePro-Md, ITC Avant Garde Gothic Pro" font-weight="500"><tspan x="0" y="0">Company Name</tspan></text>
  </g>
</svg>
