<svg xmlns="http://www.w3.org/2000/svg" width="31.076" height="35.51" viewBox="0 0 31.076 35.51">
  <g id="iconopdf" transform="translate(380.745 -172.005)">
    <path id="Trazado_1561" data-name="Trazado 1561" d="M-328.4,192.89c0-4.176.026-8.352.018-12.528a1.227,1.227,0,0,0-.3-.786q-3.606-3.663-7.257-7.281a1.011,1.011,0,0,0-.64-.276q-8.114-.023-16.227-.007a4.036,4.036,0,0,0-3.916,2.885,9.548,9.548,0,0,0-.181,1.01,4.985,4.985,0,0,0,.834-.013.5.5,0,0,0,.339-.277,2.938,2.938,0,0,1,3.18-2.462q7.555,0,15.11,0h.466c-.047.935-.154,1.822-.124,2.7a5,5,0,0,0,4.122,5,7.061,7.061,0,0,0,3.461-.118v.733c0,7.231-.034,14.462.023,21.693a3.068,3.068,0,0,1-3.165,3.221c-6.65-.027-13.3,0-19.951-.015a2.882,2.882,0,0,1-3.132-3.161q0-7.514,0-15.027v-.653h-1.151c0,1.218,0,2.4,0,3.59q0,6.052,0,12.1a4.025,4.025,0,0,0,4.254,4.286q10,0,20,0a4.025,4.025,0,0,0,4.259-4.282C-328.375,199.785-328.4,196.338-328.4,192.89Z" transform="translate(-21.298)" fill="#43425d"/>
    <path id="Trazado_1562" data-name="Trazado 1562" d="M-365.591,226.826c.841,0,1.21-.362,1.212-1.194q.008-3.676,0-7.353c0-.862-.371-1.229-1.238-1.229q-6.938,0-13.876,0c-.913,0-1.25.341-1.251,1.256q0,3.623,0,7.246c0,.953.322,1.274,1.277,1.275q3.429,0,6.858,0Q-369.1,226.827-365.591,226.826Zm-3.839-7.9h3.492v1.04c-.534,0-1.073.024-1.609-.007-.433-.025-.62.115-.576.565.029.3.005.6.005.981a10.269,10.269,0,0,0,1.088-.007c.508-.056.727.123.642.641-.02.12-.02.243-.034.435h-1.684v2.381h-1.324Zm-6.018,3.133a2.388,2.388,0,0,1-1.06.612,5.813,5.813,0,0,1-1.223.128v2.16h-1.305v-6.119c.99.065,1.968.1,2.939.212a1.152,1.152,0,0,1,.618.461A2.241,2.241,0,0,1-375.448,222.062Zm.993,2.893v-6.094c.824.043,1.617.04,2.4.138a1.824,1.824,0,0,1,1.539,1.372,4.711,4.711,0,0,1-.112,3.328,1.828,1.828,0,0,1-1.689,1.251C-373.021,224.975-373.724,224.955-374.455,224.955Z" transform="translate(0 -40.24)" fill="#ff4141"/>
    <path id="Trazado_1563" data-name="Trazado 1563" d="M-311.578,335.225h18.495v-.806h-18.495Z" transform="translate(-61.792 -145.097)" fill="#43425d"/>
    <path id="Trazado_1564" data-name="Trazado 1564" d="M-293.313,404.059h-18.533v.8h18.533Z" transform="translate(-61.553 -207.311)" fill="#43425d"/>
    <path id="Trazado_1565" data-name="Trazado 1565" d="M-311.972,439.692h18.538v-.814h-18.538Z" transform="translate(-61.44 -238.418)" fill="#43425d"/>
    <path id="Trazado_1566" data-name="Trazado 1566" d="M-311.618,369.25v.811h18.5v-.811Z" transform="translate(-61.756 -176.214)" fill="#43425d"/>
    <path id="Trazado_1567" data-name="Trazado 1567" d="M-207.778,268.585h7.428v-.794h-7.428Z" transform="translate(-154.525 -85.573)" fill="#43425d"/>
    <path id="Trazado_1568" data-name="Trazado 1568" d="M-207.818,301.118h7.431v-.811h-7.431Z" transform="translate(-154.489 -114.622)" fill="#43425d"/>
    <path id="Trazado_1569" data-name="Trazado 1569" d="M-308.036,248.007a3.949,3.949,0,0,0,.016-2.612c-.2-.584-.581-.74-1.226-.574v3.8C-308.574,248.708-308.222,248.548-308.036,248.007Z" transform="translate(-63.876 -64.997)" fill="#ff4141"/>
    <path id="Trazado_1570" data-name="Trazado 1570" d="M-352.181,243.843v1.843c.4-.145.88-.175,1-.4a1.561,1.561,0,0,0,.04-1.142C-351.293,243.7-351.766,243.807-352.181,243.843Z" transform="translate(-25.518 -64.144)" fill="#ff4141"/>
  </g>
</svg>
