<svg xmlns="http://www.w3.org/2000/svg" width="252.65" height="354.396" viewBox="0 0 252.65 354.396">
  <g id="Grupo_1814" data-name="Grupo 1814" transform="translate(8964 -3694)">
    <path id="Trazado_1579" data-name="Trazado 1579" d="M-9018,3857h252.65L-9018,4211.4Z" transform="translate(54 -163)" fill="#14141e"/>
    <g id="logo_naxu" transform="translate(-8934.058 3743)">
      <g id="Grupo_3" data-name="Grupo 3">
        <g id="Grupo_2" data-name="Grupo 2" transform="translate(0 0)">
          <g id="Grupo_1" data-name="Grupo 1">
            <path id="Trazado_911" data-name="Trazado 911" d="M167.21,177.742a7.952,7.952,0,0,1,5.951,2.416,9.171,9.171,0,0,1,2.35,6.676v13.484h-5.666V187.537a4.5,4.5,0,0,0-1.186-3.36,4.32,4.32,0,0,0-3.162-1.164,4.665,4.665,0,0,0-3.514,1.362,5.664,5.664,0,0,0-1.318,4.085v11.858H155V178.357h5.666v2.46Q162.729,177.743,167.21,177.742Z" transform="translate(-155 -177.742)" fill="#fff"/>
            <path id="Trazado_912" data-name="Trazado 912" d="M335.347,178.357h5.666v21.961h-5.666v-2.591a8.622,8.622,0,0,1-7.159,3.206,9.949,9.949,0,0,1-7.532-3.36,12.368,12.368,0,0,1,0-16.47,9.949,9.949,0,0,1,7.532-3.36,8.624,8.624,0,0,1,7.159,3.206Zm-10.539,15.526a5.965,5.965,0,0,0,4.433,1.769,6.04,6.04,0,0,0,4.456-1.769,6.724,6.724,0,0,0,0-9.091,6.042,6.042,0,0,0-4.456-1.769,5.967,5.967,0,0,0-4.433,1.769,6.787,6.787,0,0,0,0,9.091Z" transform="translate(-291.436 -177.742)" fill="#fff"/>
            <path id="Trazado_913" data-name="Trazado 913" d="M732.027,181.573h5.666v21.961h-5.666v-2.46q-2.064,3.075-6.544,3.075a7.948,7.948,0,0,1-5.951-2.416,9.167,9.167,0,0,1-2.35-6.676V181.573h5.666v12.781a4.5,4.5,0,0,0,1.186,3.36,4.318,4.318,0,0,0,3.162,1.164,4.665,4.665,0,0,0,3.514-1.361,5.663,5.663,0,0,0,1.317-4.085Z" transform="translate(-626.968 -180.958)" fill="#fff"/>
          </g>
        </g>
        <path id="Trazado_914" data-name="Trazado 914" d="M612.275,192.324l7.7-10.751h-6.545l-6.777,9.465v2.541l7.128,9.955h6.544Z" transform="translate(-534.175 -180.958)" fill="#fff"/>
        <path id="Trazado_915" data-name="Trazado 915" d="M512.04,191.038l-6.777-9.465h-6.544l7.7,10.751-8.049,11.21h6.544l7.128-9.955Z" transform="translate(-443.267 -180.958)" fill="#fff"/>
      </g>
      <text id="Power_by" data-name="Power by" transform="translate(0.058 41)" fill="#fff" font-size="14" font-family="ITCAvantGardePro-Md, ITC Avant Garde Gothic Pro" font-weight="500"><tspan x="0" y="0">Power by</tspan></text>
    </g>
  </g>
</svg>
