<svg id="Grupo_1509" data-name="Grupo 1509" xmlns="http://www.w3.org/2000/svg" width="33.122" height="27.524" viewBox="0 0 33.122 27.524">
  <path id="Trazado_1255" data-name="Trazado 1255" d="M269.874,198.109H249.347a.7.7,0,0,1-.69-.58l-3.631-20.879H240.95a.7.7,0,1,1,0-1.4h4.665a.7.7,0,0,1,.689.58l3.631,20.879h19.938a.7.7,0,0,1,0,1.4Z" transform="translate(-240.25 -175.25)" fill="#f8f9fa"/>
  <path id="Trazado_1256" data-name="Trazado 1256" d="M270.276,193.645H249.749a.7.7,0,1,1,0-1.4H269.7l2.519-12.6H246.95a.7.7,0,1,1,0-1.4h26.125a.7.7,0,0,1,.686.837l-2.8,14A.7.7,0,0,1,270.276,193.645Z" transform="translate(-240.652 -175.451)" fill="#f8f9fa"/>
  <path id="Trazado_1257" data-name="Trazado 1257" d="M253.95,193.645a.7.7,0,0,1-.7-.7v-14a.7.7,0,1,1,1.4,0v14A.7.7,0,0,1,253.95,193.645Z" transform="translate(-241.121 -175.451)" fill="#f8f9fa"/>
  <path id="Trazado_1258" data-name="Trazado 1258" d="M260.95,193.645a.7.7,0,0,1-.7-.7v-14a.7.7,0,1,1,1.4,0v14A.7.7,0,0,1,260.95,193.645Z" transform="translate(-241.589 -175.451)" fill="#f8f9fa"/>
  <path id="Trazado_1259" data-name="Trazado 1259" d="M271.276,186.65H247.95a.7.7,0,1,1,0-1.4h23.326a.7.7,0,1,1,0,1.4Z" transform="translate(-240.719 -175.92)" fill="#f8f9fa"/>
  <path id="Trazado_1260" data-name="Trazado 1260" d="M267.95,193.645a.7.7,0,0,1-.7-.7v-14a.7.7,0,1,1,1.4,0v14A.7.7,0,0,1,267.95,193.645Z" transform="translate(-242.058 -175.451)" fill="#f8f9fa"/>
  <path id="Trazado_1261" data-name="Trazado 1261" d="M254.282,204.315a3.032,3.032,0,1,1,3.032-3.032A3.036,3.036,0,0,1,254.282,204.315Zm0-4.665a1.633,1.633,0,1,0,1.633,1.633A1.635,1.635,0,0,0,254.282,199.65Z" transform="translate(-240.987 -176.79)" fill="#f8f9fa"/>
  <path id="Trazado_1262" data-name="Trazado 1262" d="M267.282,204.315a3.032,3.032,0,1,1,3.032-3.032A3.036,3.036,0,0,1,267.282,204.315Zm0-4.665a1.633,1.633,0,1,0,1.633,1.633A1.635,1.635,0,0,0,267.282,199.65Z" transform="translate(-241.857 -176.79)" fill="#f8f9fa"/>
</svg>
