<svg xmlns="http://www.w3.org/2000/svg" width="86.263" height="23.352" viewBox="0 0 86.263 23.352">
  <g id="Grupo_1542" data-name="Grupo 1542" transform="translate(0 -18.381)">
    <g id="Grupo_1522" data-name="Grupo 1522" transform="translate(0 19.832)">
      <g id="Grupo_1521" data-name="Grupo 1521" transform="translate(0 0)">
        <path id="Trazado_1451" data-name="Trazado 1451" d="M15.461,21.582A3.5,3.5,0,0,0,14.178,20.2a6.012,6.012,0,0,0-2.042-.75,16.686,16.686,0,0,0-2.774-.219l-4.906,0a1.229,1.229,0,0,0-1.129.9L.025,34.507a.7.7,0,0,0,.71.893h2.35a1.2,1.2,0,0,0,1.128-.893l.806-3.491a1.2,1.2,0,0,1,1.126-.892h.673a11.127,11.127,0,0,0,6.7-1.766,5.5,5.5,0,0,0,2.4-4.66A4.37,4.37,0,0,0,15.461,21.582Zm-5.067,4.7a4.941,4.941,0,0,1-2.971.78H6.848a.7.7,0,0,1-.714-.9l.707-3.053a1.189,1.189,0,0,1,1.119-.892l.77-.005a3.76,3.76,0,0,1,2.043.457,1.554,1.554,0,0,1,.678,1.4A2.544,2.544,0,0,1,10.394,26.279Z" transform="translate(0 -19.229)" fill="#035fe9"/>
      </g>
    </g>
    <g id="Grupo_1524" data-name="Grupo 1524" transform="translate(81.02 18.381)">
      <g id="Grupo_1523" data-name="Grupo 1523">
        <path id="Trazado_1452" data-name="Trazado 1452" d="M48.765,20.958,48.618,21l-.2.027-.241-.038-.123-.12L48,20.684l0-.282V19.356h.785v-.323H48v-.652h-.388v.652h-.264v.323h.264v1.217l.181.6.534.192.224-.019.238-.046v-.344Z" transform="translate(-47.345 -18.381)" fill="#035fe9"/>
      </g>
    </g>
    <g id="Grupo_1526" data-name="Grupo 1526" transform="translate(82.922 18.968)">
      <g id="Grupo_1525" data-name="Grupo 1525">
        <path id="Trazado_1453" data-name="Trazado 1453" d="M51.618,18.955l-.561-.231-.414.084-.421.284-.245-.272-.4-.094-.382.084-.361.233v-.253h-.382v2.285h.38V19.367l.32-.2.318-.079.26.046.128.132.056.219.019.282v1.306h.382V19.614l-.007-.121-.007-.111.325-.207.322-.08.252.046.137.132.048.221.026.279v1.306H51.8V19.593Z" transform="translate(-48.456 -18.724)" fill="#035fe9"/>
      </g>
    </g>
    <g id="Grupo_1528" data-name="Grupo 1528" transform="translate(14.609 23.491)">
      <g id="Grupo_1527" data-name="Grupo 1527">
        <path id="Trazado_1454" data-name="Trazado 1454" d="M20.72,22.117a8.917,8.917,0,0,0-4.2-.75,18.559,18.559,0,0,0-2.842.221c-.7.108-.772.128-1.2.222A1.378,1.378,0,0,0,11.439,22.9l-.287,1.182c-.163.755.272.726.453.662a12.21,12.21,0,0,1,1.4-.414,10.072,10.072,0,0,1,2.2-.294,5.8,5.8,0,0,1,2.137.3,1.079,1.079,0,0,1,.708,1.068l-.041.332-.339.209c-1.333.084-2.3.207-3.465.376a10.748,10.748,0,0,0-2.979.82A4.631,4.631,0,0,0,9.21,28.734a4.347,4.347,0,0,0-.673,2.457,2.9,2.9,0,0,0,.957,2.232,3.592,3.592,0,0,0,2.476.845,6.755,6.755,0,0,0,1.475-.137l1.138-.392.963-.534.886-.585.012.017-.089.376-.005.015v0a.7.7,0,0,0,.628.88l.009.01h2.182l.031-.014a1.215,1.215,0,0,0,1.011-.88l1.713-7.415.089-.6.041-.566A2.479,2.479,0,0,0,20.72,22.117Zm-3.789,8.337-.366.483-.924.477a3.291,3.291,0,0,1-1.229.265,2.819,2.819,0,0,1-1.338-.255l-.453-.881a1.761,1.761,0,0,1,.344-1.147l1-.678a8.614,8.614,0,0,1,1.549-.349c.537-.067,1.6-.188,1.737-.192l.163.286C17.376,28.626,17.075,29.886,16.931,30.454Z" transform="translate(-8.537 -21.367)" fill="#035fe9"/>
      </g>
    </g>
    <g id="Grupo_1530" data-name="Grupo 1530" transform="translate(57.285 23.499)">
      <g id="Grupo_1529" data-name="Grupo 1529">
        <path id="Trazado_1455" data-name="Trazado 1455" d="M45.658,22.123a8.934,8.934,0,0,0-4.2-.751,17.889,17.889,0,0,0-2.841.226c-.705.1-.775.125-1.21.217a1.374,1.374,0,0,0-1.03,1.088l-.287,1.181c-.161.755.264.72.462.662a13.919,13.919,0,0,1,1.393-.416,10.509,10.509,0,0,1,2.206-.294,5.77,5.77,0,0,1,2.132.3,1.077,1.077,0,0,1,.708,1.066l-.036.33-.335.214c-1.347.08-2.312.2-3.469.373a10.753,10.753,0,0,0-2.981.82,4.628,4.628,0,0,0-2.023,1.6,4.293,4.293,0,0,0-.674,2.447,2.871,2.871,0,0,0,.962,2.235,3.6,3.6,0,0,0,2.471.851,6.546,6.546,0,0,0,1.473-.139l1.135-.387.972-.534.88-.592.015.019-.08.38-.009.007,0,.007a.687.687,0,0,0,.625.88l0,.009h2.18l.036-.012a1.2,1.2,0,0,0,1-.886l1.718-7.4.091-.608.05-.568A2.475,2.475,0,0,0,45.658,22.123Zm-3.78,8.337-.382.488-.916.474a3.328,3.328,0,0,1-1.224.265,2.736,2.736,0,0,1-1.337-.257l-.459-.878A1.836,1.836,0,0,1,37.9,29.4a2.408,2.408,0,0,1,1.006-.676,8.729,8.729,0,0,1,1.547-.347c.534-.067,1.591-.192,1.728-.193l.166.286C42.321,28.635,42.018,29.889,41.877,30.461Z" transform="translate(-33.475 -21.372)" fill="#035fe9"/>
      </g>
    </g>
    <g id="Grupo_1532" data-name="Grupo 1532" transform="translate(42.668 19.884)">
      <g id="Grupo_1531" data-name="Grupo 1531" transform="translate(0 0)">
        <path id="Trazado_1456" data-name="Trazado 1456" d="M40.4,21.614a3.635,3.635,0,0,0-1.294-1.39,5.767,5.767,0,0,0-2.042-.75,16.153,16.153,0,0,0-2.764-.216l-4.913,0a1.221,1.221,0,0,0-1.121.893l-3.3,14.385a.7.7,0,0,0,.708.892l2.353,0a1.218,1.218,0,0,0,1.129-.89l.8-3.493a1.218,1.218,0,0,1,1.129-.892h.673a11.185,11.185,0,0,0,6.712-1.764,5.562,5.562,0,0,0,2.389-4.667A4.584,4.584,0,0,0,40.4,21.614Zm-5.067,4.7a5,5,0,0,1-2.964.77h-.585a.7.7,0,0,1-.719-.895l.712-3.048a1.2,1.2,0,0,1,1.123-.892l.762-.005A3.8,3.8,0,0,1,35.7,22.7a1.567,1.567,0,0,1,.683,1.4A2.579,2.579,0,0,1,35.329,26.318Z" transform="translate(-24.934 -19.259)" fill="#035fe9"/>
      </g>
    </g>
    <g id="Grupo_1534" data-name="Grupo 1534" transform="translate(71.181 20.012)">
      <g id="Grupo_1533" data-name="Grupo 1533" transform="translate(0 0)">
        <path id="Trazado_1457" data-name="Trazado 1457" d="M48.691,20.217a.687.687,0,0,0-.705-.883h-2.1a1.192,1.192,0,0,0-1.01.714l-.116.181-.106.465L41.708,34.066l-.1.411,0,.01a.666.666,0,0,0,.59.835l.036.05h2.185a1.193,1.193,0,0,0,1.013-.726l.113-.171L48.7,20.219Z" transform="translate(-41.595 -19.334)" fill="#035fe9"/>
      </g>
    </g>
    <g id="Grupo_1536" data-name="Grupo 1536" transform="translate(28.909 23.67)">
      <g id="Grupo_1535" data-name="Grupo 1535">
        <path id="Trazado_1458" data-name="Trazado 1458" d="M30.742,21.472c-.556.007-2.817,0-2.817,0a2.037,2.037,0,0,0-1.479.9s-3.364,5.774-3.691,6.354l-.39-.005-1.047-6.309a1.294,1.294,0,0,0-1.28-.921l-2.1,0a.7.7,0,0,0-.7.9s1.6,9.1,1.918,11.236c.149,1.181-.019,1.391-.019,1.391L17.048,38.64c-.308.493-.142.895.363.895l2.433,0a1.967,1.967,0,0,0,1.473-.893l9.361-15.833S31.579,21.453,30.742,21.472Z" transform="translate(-16.893 -21.472)" fill="#035fe9"/>
      </g>
    </g>
  </g>
</svg>
