<svg xmlns="http://www.w3.org/2000/svg" width="39.5" height="35.5" viewBox="0 0 39.5 35.5">
  <g id="Grupo_1518" data-name="Grupo 1518" transform="translate(-374.25 -376.25)">
    <path id="Trazado_1429" data-name="Trazado 1429" d="M398,380.75H387a.75.75,0,0,1,0-1.5h11a.75.75,0,0,1,0,1.5Z" fill="#3c3b54"/>
    <path id="Trazado_1430" data-name="Trazado 1430" d="M393,408.75H375a.75.75,0,0,1-.75-.75V380a.75.75,0,0,1,.75-.75h2a.75.75,0,0,1,0,1.5h-1.25v26.5H393a.75.75,0,0,1,0,1.5Z" fill="#3c3b54"/>
    <path id="Trazado_1431" data-name="Trazado 1431" d="M409,391.75a.75.75,0,0,1-.75-.75V380.75H407a.75.75,0,0,1,0-1.5h2a.75.75,0,0,1,.75.75v11A.75.75,0,0,1,409,391.75Z" fill="#3c3b54"/>
    <path id="Trazado_1432" data-name="Trazado 1432" d="M383,383.75h-3a.75.75,0,0,1-.75-.75v-6a.75.75,0,0,1,.75-.75h3a.75.75,0,0,1,.75.75v6A.75.75,0,0,1,383,383.75Zm-2.25-1.5h1.5v-4.5h-1.5Z" fill="#3c3b54"/>
    <path id="Trazado_1433" data-name="Trazado 1433" d="M404,383.75h-3a.75.75,0,0,1-.75-.75v-6a.75.75,0,0,1,.75-.75h3a.75.75,0,0,1,.75.75v6A.75.75,0,0,1,404,383.75Zm-2.25-1.5h1.5v-4.5h-1.5Z" fill="#3c3b54"/>
    <path id="Trazado_1434" data-name="Trazado 1434" d="M409,386.75H375a.75.75,0,0,1,0-1.5h34a.75.75,0,0,1,0,1.5Z" fill="#3c3b54"/>
    <path id="Trazado_1435" data-name="Trazado 1435" d="M385,395.75h-5a.75.75,0,0,1-.75-.75v-4a.75.75,0,0,1,.75-.75h5a.75.75,0,0,1,.75.75v4A.75.75,0,0,1,385,395.75Zm-4.25-1.5h3.5v-2.5h-3.5Z" fill="#3c3b54"/>
    <path id="Trazado_1436" data-name="Trazado 1436" d="M395,395.75h-5a.75.75,0,0,1-.75-.75v-4a.75.75,0,0,1,.75-.75h5a.75.75,0,0,1,.75.75v4A.75.75,0,0,1,395,395.75Zm-4.25-1.5h3.5v-2.5h-3.5Z" fill="#3c3b54"/>
    <path id="Trazado_1437" data-name="Trazado 1437" d="M385,403.75h-5a.75.75,0,0,1-.75-.75v-4a.75.75,0,0,1,.75-.75h5a.75.75,0,0,1,.75.75v4A.75.75,0,0,1,385,403.75Zm-4.25-1.5h3.5v-2.5h-3.5Z" fill="#3c3b54"/>
    <path id="Trazado_1438" data-name="Trazado 1438" d="M392,403.75h-2a.75.75,0,0,1-.75-.75v-4a.75.75,0,0,1,.75-.75h2a.75.75,0,0,1,0,1.5h-1.25v2.5H392a.75.75,0,0,1,0,1.5Z" fill="#3c3b54"/>
    <path id="Trazado_1439" data-name="Trazado 1439" d="M404,411.75a9.75,9.75,0,1,1,9.75-9.75A9.761,9.761,0,0,1,404,411.75Zm0-18a8.25,8.25,0,1,0,8.25,8.25A8.259,8.259,0,0,0,404,393.75Z" fill="#3c3b54"/>
    <path id="Trazado_1440" data-name="Trazado 1440" d="M405,406.75h-4a.75.75,0,0,1,0-1.5h4a1.25,1.25,0,0,0,0-2.5h-2a2.75,2.75,0,0,1,0-5.5h4a.75.75,0,0,1,0,1.5h-4a1.25,1.25,0,0,0,0,2.5h2a2.75,2.75,0,0,1,0,5.5Z" fill="#3c3b54"/>
    <path id="Trazado_1441" data-name="Trazado 1441" d="M404,398.75a.75.75,0,0,1-.75-.75v-2a.75.75,0,0,1,1.5,0v2A.75.75,0,0,1,404,398.75Z" fill="#3c3b54"/>
    <path id="Trazado_1442" data-name="Trazado 1442" d="M404,408.75a.75.75,0,0,1-.75-.75v-2a.75.75,0,0,1,1.5,0v2A.75.75,0,0,1,404,408.75Z" fill="#3c3b54"/>
  </g>
</svg>
