<svg xmlns="http://www.w3.org/2000/svg" width="37.5" height="30.5" viewBox="0 0 37.5 30.5">
  <g id="Grupo_1519" data-name="Grupo 1519" transform="translate(-375.25 -378.75)">
    <path id="Trazado_1443" data-name="Trazado 1443" d="M410.084,409.25H377.915a2.667,2.667,0,0,1-2.665-2.665v-22.17a2.667,2.667,0,0,1,2.665-2.665H383a.75.75,0,0,1,0,1.5h-5.085a1.166,1.166,0,0,0-1.165,1.165v22.17a1.166,1.166,0,0,0,1.165,1.165h32.169a1.167,1.167,0,0,0,1.166-1.166V384.416a1.167,1.167,0,0,0-1.166-1.166H405a.75.75,0,0,1,0-1.5h5.084a2.669,2.669,0,0,1,2.666,2.666v22.168A2.669,2.669,0,0,1,410.084,409.25Zm-9.084-26H387a.75.75,0,0,1,0-1.5h14a.75.75,0,0,1,0,1.5Z" fill="#3c3b54"/>
    <path id="Trazado_1444" data-name="Trazado 1444" d="M387.429,403.25H383c-1.866,0-3.384-1.95-3.384-4.347a1.971,1.971,0,0,1,1.778-2.153h7.641a1.971,1.971,0,0,1,1.778,2.153C390.813,401.3,389.3,403.25,387.429,403.25Zm-6.035-5c-.053,0-.278.218-.278.653,0,1.543.863,2.847,1.884,2.847h4.429c1.021,0,1.884-1.3,1.884-2.847,0-.435-.225-.653-.278-.653Z" fill="#3c3b54"/>
    <path id="Trazado_1445" data-name="Trazado 1445" d="M385.532,395.908a3.235,3.235,0,0,1-3.282-3.218v-.653a3.25,3.25,0,0,1,6.5,0v.653A3.221,3.221,0,0,1,385.532,395.908Zm0-5.589a1.735,1.735,0,0,0-1.782,1.718v.653a1.75,1.75,0,0,0,3.5,0v-.653A1.72,1.72,0,0,0,385.532,390.319Z" fill="#3c3b54"/>
    <path id="Trazado_1446" data-name="Trazado 1446" d="M407,393.25H394a.75.75,0,0,1,0-1.5h13a.75.75,0,0,1,0,1.5Z" fill="#3c3b54"/>
    <path id="Trazado_1447" data-name="Trazado 1447" d="M407,397.25H394a.75.75,0,0,1,0-1.5h13a.75.75,0,0,1,0,1.5Z" fill="#3c3b54"/>
    <path id="Trazado_1448" data-name="Trazado 1448" d="M404,401.25H394a.75.75,0,0,1,0-1.5h10a.75.75,0,0,1,0,1.5Z" fill="#3c3b54"/>
    <path id="Trazado_1449" data-name="Trazado 1449" d="M387,386.25h-4a.75.75,0,0,1-.75-.75v-6a.75.75,0,0,1,.75-.75h4a.75.75,0,0,1,.75.75v6A.75.75,0,0,1,387,386.25Zm-3.25-1.5h2.5v-4.5h-2.5Z" fill="#3c3b54"/>
    <path id="Trazado_1450" data-name="Trazado 1450" d="M405,386.25h-4a.75.75,0,0,1-.75-.75v-6a.75.75,0,0,1,.75-.75h4a.75.75,0,0,1,.75.75v6A.75.75,0,0,1,405,386.25Zm-3.25-1.5h2.5v-4.5h-2.5Z" fill="#3c3b54"/>
  </g>
</svg>
