<svg xmlns="http://www.w3.org/2000/svg" width="37.5" height="27.5" viewBox="0 0 37.5 27.5">
  <g id="Grupo_1538" data-name="Grupo 1538" transform="translate(-8771 -3681)">
    <g id="Grupo_1537" data-name="Grupo 1537" transform="translate(8775 3672.619)">
      <g id="Grupo_1522" data-name="Grupo 1522" transform="translate(0 18.885)">
        <g id="Grupo_1521" data-name="Grupo 1521" transform="translate(0 0)">
          <path id="Trazado_1451" data-name="Trazado 1451" d="M5.365,20.046a1.213,1.213,0,0,0-.445-.48,2.086,2.086,0,0,0-.708-.26,5.79,5.79,0,0,0-.963-.076h-1.7a.427.427,0,0,0-.392.311L.009,24.531a.241.241,0,0,0,.246.31h.815a.417.417,0,0,0,.391-.31l.28-1.211a.418.418,0,0,1,.391-.309h.233A3.861,3.861,0,0,0,4.69,22.4a1.909,1.909,0,0,0,.833-1.617A1.517,1.517,0,0,0,5.365,20.046Zm-1.758,1.63a1.715,1.715,0,0,1-1.031.271h-.2a.243.243,0,0,1-.248-.311l.245-1.059a.413.413,0,0,1,.388-.309l.267,0a1.3,1.3,0,0,1,.709.159.539.539,0,0,1,.235.486A.883.883,0,0,1,3.607,21.676Z" transform="translate(0 -19.229)" fill="#3c3b54"/>
        </g>
      </g>
      <g id="Grupo_1524" data-name="Grupo 1524" transform="translate(28.115 18.381)">
        <g id="Grupo_1523" data-name="Grupo 1523">
          <path id="Trazado_1452" data-name="Trazado 1452" d="M47.838,19.275l-.051.015-.068.01-.084-.013-.043-.042-.02-.065v-.461h.273v-.112h-.273v-.226h-.135v.226h-.091v.112h.091v.422l.063.209.185.067.078-.007.083-.016v-.119Z" transform="translate(-47.345 -18.381)" fill="#3c3b54"/>
        </g>
      </g>
      <g id="Grupo_1526" data-name="Grupo 1526" transform="translate(28.775 18.585)">
        <g id="Grupo_1525" data-name="Grupo 1525">
          <path id="Trazado_1453" data-name="Trazado 1453" d="M49.553,18.8l-.195-.08-.144.029-.146.1-.085-.094-.138-.033-.132.029-.125.081v-.088h-.132v.793h.132v-.592l.111-.069.11-.027.09.016.045.046.02.076.007.1v.453H49.1v-.507l0-.042,0-.039.113-.072.112-.028.087.016.048.046.017.077.009.1v.453h.133v-.515Z" transform="translate(-48.456 -18.724)" fill="#3c3b54"/>
        </g>
      </g>
      <g id="Grupo_1528" data-name="Grupo 1528" transform="translate(5.07 20.154)">
        <g id="Grupo_1527" data-name="Grupo 1527">
          <path id="Trazado_1454" data-name="Trazado 1454" d="M12.764,21.627a3.094,3.094,0,0,0-1.457-.26,6.44,6.44,0,0,0-.986.077c-.244.037-.268.045-.418.077a.478.478,0,0,0-.359.377l-.1.41c-.056.262.094.252.157.23a4.237,4.237,0,0,1,.488-.144,3.5,3.5,0,0,1,.764-.1,2.013,2.013,0,0,1,.742.1.375.375,0,0,1,.246.371l-.014.115-.118.072c-.463.029-.8.072-1.2.131a3.73,3.73,0,0,0-1.034.284,1.607,1.607,0,0,0-.7.553,1.508,1.508,0,0,0-.233.853,1.007,1.007,0,0,0,.332.774,1.246,1.246,0,0,0,.859.293,2.344,2.344,0,0,0,.512-.048l.395-.136.334-.185.308-.2,0,.006-.031.131,0,.005h0a.242.242,0,0,0,.218.305l0,0h.757l.011,0a.422.422,0,0,0,.351-.305l.594-2.573.031-.21.014-.2A.86.86,0,0,0,12.764,21.627ZM11.45,24.52l-.127.167L11,24.853a1.142,1.142,0,0,1-.426.092.978.978,0,0,1-.464-.088l-.157-.306a.611.611,0,0,1,.119-.4l.346-.235a2.989,2.989,0,0,1,.537-.121c.186-.023.555-.065.6-.067l.056.1C11.6,23.886,11.5,24.323,11.45,24.52Z" transform="translate(-8.537 -21.367)" fill="#3c3b54"/>
        </g>
      </g>
      <g id="Grupo_1530" data-name="Grupo 1530" transform="translate(19.879 20.157)">
        <g id="Grupo_1529" data-name="Grupo 1529">
          <path id="Trazado_1455" data-name="Trazado 1455" d="M37.7,21.633a3.1,3.1,0,0,0-1.457-.261,6.208,6.208,0,0,0-.986.078c-.245.036-.269.043-.42.075a.477.477,0,0,0-.357.378l-.1.41c-.056.262.091.25.16.23a4.83,4.83,0,0,1,.483-.144,3.647,3.647,0,0,1,.765-.1,2,2,0,0,1,.74.105.374.374,0,0,1,.246.37l-.012.115-.116.074c-.467.028-.8.071-1.2.129a3.731,3.731,0,0,0-1.034.284,1.606,1.606,0,0,0-.7.555,1.49,1.49,0,0,0-.234.849,1,1,0,0,0,.334.776,1.248,1.248,0,0,0,.857.3,2.272,2.272,0,0,0,.511-.048l.394-.134.337-.185.305-.205.005.007-.028.132,0,0v0a.239.239,0,0,0,.217.305v0h.757l.012,0a.417.417,0,0,0,.347-.308l.6-2.57.031-.211.017-.2A.859.859,0,0,0,37.7,21.633Zm-1.312,2.893-.132.169-.318.164a1.155,1.155,0,0,1-.425.092.949.949,0,0,1-.464-.089l-.159-.3a.637.637,0,0,1,.116-.4.835.835,0,0,1,.349-.235A3.029,3.029,0,0,1,35.9,23.8c.185-.023.552-.067.6-.067l.058.1C36.545,23.892,36.439,24.327,36.391,24.526Z" transform="translate(-33.475 -21.372)" fill="#3c3b54"/>
        </g>
      </g>
      <g id="Grupo_1532" data-name="Grupo 1532" transform="translate(14.806 18.902)">
        <g id="Grupo_1531" data-name="Grupo 1531" transform="translate(0 0)">
          <path id="Trazado_1456" data-name="Trazado 1456" d="M30.3,20.076a1.262,1.262,0,0,0-.449-.482,2,2,0,0,0-.708-.26,5.605,5.605,0,0,0-.959-.075h-1.7a.424.424,0,0,0-.389.31l-1.147,4.992a.242.242,0,0,0,.246.309H26a.423.423,0,0,0,.392-.309l.276-1.212a.423.423,0,0,1,.392-.309H27.3a3.881,3.881,0,0,0,2.329-.612,1.93,1.93,0,0,0,.829-1.619A1.591,1.591,0,0,0,30.3,20.076Zm-1.758,1.632a1.736,1.736,0,0,1-1.029.267h-.2a.244.244,0,0,1-.249-.311l.247-1.058a.415.415,0,0,1,.39-.309l.264,0a1.32,1.32,0,0,1,.709.158.544.544,0,0,1,.237.486A.9.9,0,0,1,28.541,21.709Z" transform="translate(-24.934 -19.259)" fill="#3c3b54"/>
        </g>
      </g>
      <g id="Grupo_1534" data-name="Grupo 1534" transform="translate(24.701 18.947)">
        <g id="Grupo_1533" data-name="Grupo 1533" transform="translate(0 0)">
          <path id="Trazado_1457" data-name="Trazado 1457" d="M44.058,19.64a.238.238,0,0,0-.245-.306h-.73a.414.414,0,0,0-.35.248l-.04.063-.037.162-1.021,4.64-.033.143v0a.231.231,0,0,0,.2.29l.012.017h.758a.414.414,0,0,0,.352-.252l.039-.059,1.091-4.947Z" transform="translate(-41.595 -19.334)" fill="#3c3b54"/>
        </g>
      </g>
      <g id="Grupo_1536" data-name="Grupo 1536" transform="translate(10.032 20.216)">
        <g id="Grupo_1535" data-name="Grupo 1535">
          <path id="Trazado_1458" data-name="Trazado 1458" d="M21.7,21.472c-.193,0-.977,0-.977,0a.707.707,0,0,0-.513.311s-1.167,2-1.281,2.2l-.135,0L18.429,21.8a.449.449,0,0,0-.444-.319h-.73a.241.241,0,0,0-.244.311s.555,3.156.666,3.9c.052.41-.007.483-.007.483l-.722,1.258c-.107.171-.049.311.126.311h.844a.682.682,0,0,0,.511-.31l3.248-5.494S21.989,21.465,21.7,21.472Z" transform="translate(-16.893 -21.472)" fill="#3c3b54"/>
        </g>
      </g>
    </g>
    <path id="Trazado_1459" data-name="Trazado 1459" d="M410.084,409.25H377.915a2.667,2.667,0,0,1-2.665-2.665v-22.17a2.667,2.667,0,0,1,2.665-2.665H383a.75.75,0,0,1,0,1.5h-5.085a1.166,1.166,0,0,0-1.165,1.165v22.17a1.166,1.166,0,0,0,1.165,1.165h32.169a1.167,1.167,0,0,0,1.166-1.166V384.416a1.167,1.167,0,0,0-1.166-1.166H405a.75.75,0,0,1,0-1.5h5.084a2.669,2.669,0,0,1,2.666,2.666v22.168A2.669,2.669,0,0,1,410.084,409.25Zm-9.084-26H387a.75.75,0,0,1,0-1.5h14a.75.75,0,0,1,0,1.5Z" transform="translate(8395.75 3299.25)" fill="#3c3b54"/>
  </g>
</svg>
