<svg id="logo_Beneficios" xmlns="http://www.w3.org/2000/svg" width="28.003" height="28.003" viewBox="0 0 28.003 28.003">
  <path id="Trazado_1504" data-name="Trazado 1504" d="M199.282,135.714H175.877a.627.627,0,0,1-.627-.627v-14.21a.627.627,0,0,1,1.254,0V134.46h22.151V120.877a.627.627,0,1,1,1.254,0v14.21A.627.627,0,0,1,199.282,135.714Z" transform="translate(-173.578 -107.711)" fill="#a5a4bf"/>
  <path id="Trazado_1505" data-name="Trazado 1505" d="M200.626,120.191H173.877a.627.627,0,0,1-.627-.627v-6.687a.627.627,0,0,1,.627-.627h26.749a.627.627,0,0,1,.627.627v6.687A.627.627,0,0,1,200.626,120.191ZM174.5,118.937H200V113.5H174.5Z" transform="translate(-173.25 -106.399)" fill="#a5a4bf"/>
  <path id="Trazado_1506" data-name="Trazado 1506" d="M181.227,112.355a.623.623,0,0,1-.461-.2l-1.459-1.582a3.172,3.172,0,0,1,4.663-4.3l4.621,5.011a.627.627,0,1,1-.922.85l-4.621-5.011a1.963,1.963,0,0,0-2.82,0,1.928,1.928,0,0,0,0,2.6l1.459,1.582a.627.627,0,0,1-.461,1.052Z" transform="translate(-174.107 -105.25)" fill="#a5a4bf"/>
  <path id="Trazado_1507" data-name="Trazado 1507" d="M196.725,112.355a.627.627,0,0,1-.461-1.052l1.459-1.582a1.928,1.928,0,0,0,0-2.6,1.9,1.9,0,0,0-1.409-.618h0a1.9,1.9,0,0,0-1.409.618l-4.587,4.974a.626.626,0,0,1-.921-.849l4.587-4.975a3.179,3.179,0,0,1,2.331-1.021h0a3.171,3.171,0,0,1,2.33,5.321l-1.459,1.582A.623.623,0,0,1,196.725,112.355Z" transform="translate(-175.872 -105.25)" fill="#a5a4bf"/>
  <path id="Trazado_1508" data-name="Trazado 1508" d="M189.877,134.4a.627.627,0,0,1-.627-.627v-20.9a.627.627,0,1,1,1.254,0v20.9A.627.627,0,0,1,189.877,134.4Z" transform="translate(-175.876 -106.399)" fill="#a5a4bf"/>
  <path id="Trazado_1509" data-name="Trazado 1509" d="M189.877,134.4a.627.627,0,0,1-.627-.627v-20.9a.627.627,0,1,1,1.254,0v20.9A.627.627,0,0,1,189.877,134.4Z" transform="translate(-175.876 -106.399)" fill="#a5a4bf"/>
</svg>
