<svg id="logo_ReciboNomina" xmlns="http://www.w3.org/2000/svg" width="20.66" height="28.763" viewBox="0 0 20.66 28.763">
  <path id="Trazado_1518" data-name="Trazado 1518" d="M333.3,133.012a.605.605,0,0,1-.291-.075l-2.944-1.61-2.948,1.61a.609.609,0,0,1-.583,0l-2.948-1.61-2.949,1.61a.609.609,0,0,1-.582,0l-2.954-1.611-2.955,1.611a.608.608,0,0,1-.9-.534V104.858a.607.607,0,0,1,.9-.533l2.944,1.61,2.948-1.61a.609.609,0,0,1,.583,0l2.948,1.61,2.949-1.61a.609.609,0,0,1,.583,0l2.954,1.611,2.955-1.611a.608.608,0,0,1,.9.534V132.4a.607.607,0,0,1-.608.608Zm-16.2-2.985a.607.607,0,0,1,.291.075l2.955,1.611L323.3,130.1a.609.609,0,0,1,.583,0l2.948,1.611,2.948-1.611a.609.609,0,0,1,.583,0l2.337,1.278v-25.5l-2.346,1.279a.609.609,0,0,1-.583,0l-2.955-1.611-2.948,1.611a.609.609,0,0,1-.583,0l-2.948-1.611-2.948,1.611a.609.609,0,0,1-.583,0l-2.337-1.278v25.5l2.346-1.279A.612.612,0,0,1,317.1,130.027Z" transform="translate(-313.25 -104.25)" fill="#a5a4bf"/>
  <path id="Trazado_1519" data-name="Trazado 1519" d="M330.96,114.465h-8.1a.608.608,0,0,1,0-1.215h8.1a.608.608,0,1,1,0,1.215Z" transform="translate(-314.958 -105.958)" fill="#a5a4bf"/>
  <path id="Trazado_1520" data-name="Trazado 1520" d="M330.011,123.465H317.858a.608.608,0,0,1,0-1.215h12.153a.608.608,0,0,1,0,1.215Z" transform="translate(-314.009 -107.666)" fill="#a5a4bf"/>
  <path id="Trazado_1521" data-name="Trazado 1521" d="M325.96,128.465h-8.1a.608.608,0,0,1,0-1.215h8.1a.608.608,0,1,1,0,1.215Z" transform="translate(-314.009 -108.615)" fill="#a5a4bf"/>
  <path id="Trazado_1522" data-name="Trazado 1522" d="M328.529,118.465h-5.671a.608.608,0,0,1,0-1.215h5.671a.608.608,0,0,1,0,1.215Z" transform="translate(-314.958 -106.717)" fill="#a5a4bf"/>
  <path id="Trazado_1523" data-name="Trazado 1523" d="M319.478,114.465h-1.62a.608.608,0,0,1,0-1.215h1.62a.608.608,0,0,1,0,1.215Z" transform="translate(-314.009 -105.958)" fill="#a5a4bf"/>
  <path id="Trazado_1524" data-name="Trazado 1524" d="M319.478,118.465h-1.62a.608.608,0,0,1,0-1.215h1.62a.608.608,0,0,1,0,1.215Z" transform="translate(-314.009 -106.717)" fill="#a5a4bf"/>
</svg>
