<svg xmlns="http://www.w3.org/2000/svg" width="28.812" height="30.348" viewBox="0 0 28.812 30.348">
  <g id="logo_vacaciones" transform="translate(-103.25 -169.25)">
    <path id="Trazado_1228" data-name="Trazado 1228" d="M123.626,193.525a.586.586,0,0,1-.063,0,.577.577,0,0,1-.511-.635l1.248-11.511a.576.576,0,1,1,1.146.124L124.2,193.011A.575.575,0,0,1,123.626,193.525Z" transform="translate(-4.587 -2.69)" fill="#a3a0fb"/>
    <path id="Trazado_1229" data-name="Trazado 1229" d="M117.9,193.108a.591.591,0,0,1-.11-.01.576.576,0,0,1-.457-.675l2.341-12.171a.576.576,0,1,1,1.131.217l-2.34,12.171A.576.576,0,0,1,117.9,193.108Z" transform="translate(-3.262 -2.441)" fill="#a3a0fb"/>
    <path id="Trazado_1230" data-name="Trazado 1230" d="M122.922,193.638c-.022,0-.046,0-.069,0l-1.972-.238a.576.576,0,1,1,.138-1.144l1.971.238a.576.576,0,0,1-.068,1.148Z" transform="translate(-3.967 -5.328)" fill="#a3a0fb"/>
    <path id="Trazado_1231" data-name="Trazado 1231" d="M123.791,185.6a.521.521,0,0,1-.068,0l-1.786-.213a.576.576,0,0,1,.137-1.145l1.785.214a.576.576,0,0,1-.068,1.149Z" transform="translate(-4.212 -3.471)" fill="#a3a0fb"/>
    <path id="Trazado_1232" data-name="Trazado 1232" d="M121.582,189.02l-.055,0-1.709-.162a.576.576,0,0,1-.519-.628.57.57,0,0,1,.628-.519l1.71.161a.576.576,0,0,1-.054,1.15Z" transform="translate(-3.718 -4.276)" fill="#a3a0fb"/>
    <path id="Trazado_1233" data-name="Trazado 1233" d="M125.479,177.374a.576.576,0,0,1-.035-1.152l10.014-.6a5.56,5.56,0,0,0-2.811-2.876,1.029,1.029,0,0,0-.486-.065c-1.566.184-4.311,1.414-7.728,3.464a.577.577,0,0,1-.593-.989c2.515-1.507,5.977-3.359,8.188-3.619a2.136,2.136,0,0,1,1.047.14,6.322,6.322,0,0,1,3.691,4.443.575.575,0,0,1-.541.61l-10.713.644Z" transform="translate(-4.706 -0.526)" fill="#a3a0fb"/>
    <path id="Trazado_1234" data-name="Trazado 1234" d="M130.83,188.05l-.035,0a.575.575,0,0,1-.4-.2l-7.684-8.906h0l-.393-.456a1.118,1.118,0,0,1-.065-1.4,1.086,1.086,0,0,1,1.306-.386c2.883,1.151,6.662,2.88,8.292,4.581a2.234,2.234,0,0,1,.529.92,6.443,6.443,0,0,1-1.164,5.7A.575.575,0,0,1,130.83,188.05Zm-7.247-9.859,7.212,8.36a5.754,5.754,0,0,0,.478-4.028,1.066,1.066,0,0,0-.254-.443c-1.566-1.634-5.614-3.4-7.888-4.308Z" transform="translate(-4.353 -1.708)" fill="#a3a0fb"/>
    <path id="Trazado_1235" data-name="Trazado 1235" d="M118.293,176.257a.591.591,0,0,1-.141-.017L107.964,173.7a.577.577,0,0,1-.421-.693,6.249,6.249,0,0,1,4.4-3.712,2.146,2.146,0,0,1,1.056.051c2.23.685,5.485,3.3,7.823,5.379a.576.576,0,1,1-.766.861c-1.843-1.637-5.256-4.482-7.4-5.139a1.012,1.012,0,0,0-.489-.024,5.487,5.487,0,0,0-3.26,2.326l9.518,2.375a.576.576,0,0,1-.139,1.135Z" transform="translate(-0.991)" fill="#a3a0fb"/>
    <path id="Trazado_1236" data-name="Trazado 1236" d="M110.233,185.826a.552.552,0,0,1-.106-.01.574.574,0,0,1-.373-.246,6.462,6.462,0,0,1,.238-5.815,2.2,2.2,0,0,1,.736-.762c1.988-1.241,6.067-1.969,9.139-2.363a.577.577,0,0,1,.147,1.144c-2.422.309-6.769,1.006-8.676,2.2a1.045,1.045,0,0,0-.349.363,5.755,5.755,0,0,0-.5,4.033l9.2-6.44a.576.576,0,0,1,.661.943l-9.788,6.852A.575.575,0,0,1,110.233,185.826Z" transform="translate(-1.373 -1.709)" fill="#a3a0fb"/>
    <path id="Trazado_1237" data-name="Trazado 1237" d="M126.51,203.378a.576.576,0,0,1-.576-.576c0-3.384-3.932-6.137-8.766-6.137s-8.766,2.753-8.766,6.137a.576.576,0,1,1-1.152,0c0-4.02,4.449-7.29,9.918-7.29s9.918,3.27,9.918,7.29A.576.576,0,0,1,126.51,203.378Z" transform="translate(-0.927 -6.084)" fill="#a3a0fb"/>
    <path id="Trazado_1238" data-name="Trazado 1238" d="M129.949,205.4H103.826a.576.576,0,1,1,0-1.152h26.123a.576.576,0,1,1,0,1.152Z" transform="translate(0 -8.109)" fill="#a3a0fb"/>
    <path id="Trazado_1239" data-name="Trazado 1239" d="M126.8,208.4H106.826a.576.576,0,1,1,0-1.152H126.8a.576.576,0,1,1,0,1.152Z" transform="translate(-0.695 -8.804)" fill="#a3a0fb"/>
  </g>
</svg>
