<svg xmlns="http://www.w3.org/2000/svg" width="27.783" height="24.97" viewBox="0 0 27.783 24.97">
  <g id="logo_seguros_Hover" transform="translate(-306.25 -376.25)">
    <path id="Trazado_1240" data-name="Trazado 1240" d="M319.612,403.25a.528.528,0,0,1-.527-.528v-4l-4.829-4.83a.882.882,0,0,0-1.244,0l-.121.121a.881.881,0,0,0,0,1.244l3.226,3.226a.527.527,0,1,1-.746.746L312.146,396a1.936,1.936,0,0,1,0-2.735l.121-.121a1.936,1.936,0,0,1,2.735,0l4.984,4.984a.525.525,0,0,1,.155.373v4.22A.528.528,0,0,1,319.612,403.25Z" transform="translate(-1.581 -4.844)" fill="#a3a0fb"/>
    <path id="Trazado_1241" data-name="Trazado 1241" d="M312.4,399.593a.528.528,0,0,1-.528-.528v-.485l-3.615-3.615a6.918,6.918,0,0,1-2.012-4.857v-7.924a1.934,1.934,0,1,1,3.869,0v6.33a.528.528,0,1,1-1.055,0v-6.33a.879.879,0,1,0-1.758,0v7.924a5.856,5.856,0,0,0,1.7,4.11l3.769,3.77a.525.525,0,0,1,.155.373v.7A.528.528,0,0,1,312.4,399.593Z" transform="translate(0 -1.187)" fill="#a3a0fb"/>
    <path id="Trazado_1242" data-name="Trazado 1242" d="M328.778,403.25a.528.528,0,0,1-.528-.528V398.5a.525.525,0,0,1,.155-.373l4.984-4.984a1.936,1.936,0,0,1,2.735,0l.121.121a1.936,1.936,0,0,1,0,2.735l-3.226,3.226a.527.527,0,0,1-.746-.746l3.226-3.226a.881.881,0,0,0,0-1.244l-.121-.121a.882.882,0,0,0-1.244,0l-4.829,4.83v4A.528.528,0,0,1,328.778,403.25Z" transform="translate(-6.526 -4.844)" fill="#a3a0fb"/>
    <path id="Trazado_1243" data-name="Trazado 1243" d="M336.778,399.593a.528.528,0,0,1-.528-.528v-.7a.525.525,0,0,1,.155-.373l3.769-3.77a5.856,5.856,0,0,0,1.7-4.11v-7.924a.879.879,0,1,0-1.758,0v6.33a.528.528,0,0,1-1.055,0v-6.33a1.934,1.934,0,0,1,3.869,0v7.924a6.918,6.918,0,0,1-2.012,4.857l-3.615,3.615v.485A.528.528,0,0,1,336.778,399.593Z" transform="translate(-8.899 -1.187)" fill="#a3a0fb"/>
    <path id="Trazado_1244" data-name="Trazado 1244" d="M323.108,389.966a6.858,6.858,0,1,1,6.858-6.858A6.866,6.866,0,0,1,323.108,389.966Zm0-12.661a5.8,5.8,0,1,0,5.8,5.8A5.809,5.809,0,0,0,323.108,377.305Z" transform="translate(-2.966 0)" fill="#a3a0fb"/>
    <path id="Trazado_1245" data-name="Trazado 1245" d="M325.591,387.932h-2.813a.528.528,0,0,1,0-1.055h2.813a.879.879,0,1,0,0-1.758h-1.407a1.934,1.934,0,0,1,0-3.869H327a.528.528,0,1,1,0,1.055h-2.813a.879.879,0,0,0,0,1.758h1.407a1.934,1.934,0,0,1,0,3.869Z" transform="translate(-4.746 -1.483)" fill="#a3a0fb"/>
    <path id="Trazado_1246" data-name="Trazado 1246" d="M325.778,381.712a.528.528,0,0,1-.528-.527v-1.407a.528.528,0,1,1,1.055,0v1.407A.528.528,0,0,1,325.778,381.712Z" transform="translate(-5.636 -0.89)" fill="#a3a0fb"/>
    <path id="Trazado_1247" data-name="Trazado 1247" d="M325.778,391.712a.528.528,0,0,1-.528-.528v-1.407a.528.528,0,1,1,1.055,0v1.407A.528.528,0,0,1,325.778,391.712Z" transform="translate(-5.636 -3.856)" fill="#a3a0fb"/>
    <path id="Trazado_1248" data-name="Trazado 1248" d="M320.811,410.712a.528.528,0,0,1-.527-.528v-.879h-5.979v.879a.528.528,0,1,1-1.055,0v-1.407a.528.528,0,0,1,.528-.528h7.034a.528.528,0,0,1,.528.528v1.407A.528.528,0,0,1,320.811,410.712Z" transform="translate(-2.076 -9.492)" fill="#a3a0fb"/>
    <path id="Trazado_1249" data-name="Trazado 1249" d="M334.811,410.712a.528.528,0,0,1-.528-.528v-.879h-5.979v.879a.528.528,0,0,1-1.055,0v-1.407a.528.528,0,0,1,.528-.528h7.034a.528.528,0,0,1,.527.528v1.407A.528.528,0,0,1,334.811,410.712Z" transform="translate(-6.229 -9.492)" fill="#a3a0fb"/>
  </g>
</svg>
