<svg xmlns="http://www.w3.org/2000/svg" width="26.387" height="18.954" viewBox="0 0 26.387 18.954">
  <g id="logo_contacto_hover" transform="translate(-172.25 -313.25)">
    <path id="Trazado_1263" data-name="Trazado 1263" d="M198.079,332.2H172.807a.558.558,0,0,1-.557-.557V313.807a.558.558,0,0,1,.557-.557h25.272a.558.558,0,0,1,.557.557v17.839A.558.558,0,0,1,198.079,332.2Zm-24.714-1.115h24.157V314.365H173.365Z" transform="translate(0)" fill="#a3a0fb"/>
    <path id="Trazado_1264" data-name="Trazado 1264" d="M185.443,323.284a.557.557,0,0,1-.322-.1l-12.636-8.919a.557.557,0,1,1,.644-.91l12.314,8.692,12.314-8.692a.557.557,0,1,1,.644.91l-12.636,8.919A.557.557,0,0,1,185.443,323.284Z" transform="translate(0 0)" fill="#a3a0fb"/>
    <path id="Trazado_1265" data-name="Trazado 1265" d="M207,338" transform="translate(-8.921 -6.354)" fill="#a3a0fb" stroke="#444" stroke-linecap="round" stroke-linejoin="round" stroke-width="1.5"/>
    <path id="Trazado_1266" data-name="Trazado 1266" d="M199.55,330.243a.556.556,0,0,1-.382-.151l-6.535-6.143a.558.558,0,0,1,.764-.813l6.535,6.143a.558.558,0,0,1-.382.964Z" transform="translate(-5.188 -2.499)" fill="#a3a0fb"/>
    <path id="Trazado_1267" data-name="Trazado 1267" d="M177.808,330.243a.558.558,0,0,1-.382-.964l6.535-6.143a.558.558,0,0,1,.764.813l-6.535,6.143A.557.557,0,0,1,177.808,330.243Z" transform="translate(-1.284 -2.499)" fill="#a3a0fb"/>
  </g>
</svg>
