<svg xmlns="http://www.w3.org/2000/svg" width="30.09" height="30.089" viewBox="0 0 30.09 30.089">
  <g id="logo_asistencia_hover" transform="translate(-103.222 -239.25)">
    <path id="Trazado_1510" data-name="Trazado 1510" d="M118.277,270.619a15.061,15.061,0,0,1-12.21-23.829,2.62,2.62,0,0,1,3.976-.313l1.816,1.816a2.623,2.623,0,0,1,0,3.7l-2.677,2.678a9.126,9.126,0,0,0,10,9.983l2.671-2.67h0a2.622,2.622,0,0,1,3.7,0l1.81,1.81a2.619,2.619,0,0,1-.313,3.975A14.976,14.976,0,0,1,118.277,270.619Zm-10.09-23.709c-.039,0-.078,0-.116,0a1.405,1.405,0,0,0-1.028.578A13.834,13.834,0,0,0,126.348,266.8a1.4,1.4,0,0,0,.578-1.029,1.421,1.421,0,0,0-.412-1.122l-1.81-1.81a1.422,1.422,0,0,0-2,0l-2.82,2.82a.6.6,0,0,1-.353.172,10.33,10.33,0,0,1-11.518-11.5.6.6,0,0,1,.172-.354l2.828-2.828a1.419,1.419,0,0,0,0-2l-1.816-1.815A1.425,1.425,0,0,0,108.187,246.91Zm11.269,18.323h0Z" transform="translate(0 -1.28)" fill="#a3a0fb"/>
    <path id="Trazado_1511" data-name="Trazado 1511" d="M130.13,272.787a.6.6,0,0,1-.425-.176l-4.277-4.277a.6.6,0,0,1,.851-.851l4.276,4.277a.6.6,0,0,1-.425,1.027Z" transform="translate(-4.367 -5.562)" fill="#a3a0fb"/>
    <path id="Trazado_1512" data-name="Trazado 1512" d="M110.736,253.393a.6.6,0,0,1-.425-.176l-4.277-4.277a.6.6,0,1,1,.851-.85l4.276,4.277a.6.6,0,0,1-.425,1.026Z" transform="translate(-0.523 -1.718)" fill="#a3a0fb"/>
    <path id="Trazado_1513" data-name="Trazado 1513" d="M129.218,260.755a.6.6,0,0,1-.526-.892,9.141,9.141,0,0,0-12.424-12.423.6.6,0,1,1-.581-1.053,10.343,10.343,0,0,1,14.057,14.058A.6.6,0,0,1,129.218,260.755Z" transform="translate(-2.409 -1.161)" fill="#a3a0fb"/>
    <path id="Trazado_1514" data-name="Trazado 1514" d="M131.779,263a.6.6,0,0,1-.5-.94,13.83,13.83,0,0,0-19.214-19.213.6.6,0,0,1-.677-.994,15.033,15.033,0,0,1,20.884,20.885A.6.6,0,0,1,131.779,263Z" transform="translate(-1.567)" fill="#a3a0fb"/>
    <g id="Grupo_1628" data-name="Grupo 1628" transform="translate(112.816 249.939)">
      <path id="Trazado_1515" data-name="Trazado 1515" d="M120.65,260.751h-4.86a.6.6,0,0,1-.426-1.026c.205-.205.51-.471.865-.779,1.278-1.107,3.654-3.167,3.075-4.38a1.255,1.255,0,0,0-1.372-.681,1.41,1.41,0,0,0-1.223,1.154.6.6,0,1,1-1.191-.166,2.6,2.6,0,0,1,2.229-2.177,2.447,2.447,0,0,1,2.642,1.352c.911,1.9-1.312,4.009-3.019,5.5h3.28a.6.6,0,0,1,0,1.2Z" transform="translate(-115.187 -252.598)" fill="#a3a0fb"/>
      <path id="Trazado_1516" data-name="Trazado 1516" d="M127.664,258.329h-4.8a.6.6,0,0,1-.489-.951l3.246-4.544a.6.6,0,0,1,.979.7l-2.566,3.594h3.632a.6.6,0,1,1,0,1.2Z" transform="translate(-116.59 -252.582)" fill="#a3a0fb"/>
      <path id="Trazado_1517" data-name="Trazado 1517" d="M126.851,260.867a.6.6,0,0,1-.6-.6v-6.414a.6.6,0,0,1,1.2,0v6.414A.6.6,0,0,1,126.851,260.867Z" transform="translate(-117.38 -252.714)" fill="#a3a0fb"/>
    </g>
  </g>
</svg>
