<svg id="logo_Tienda" xmlns="http://www.w3.org/2000/svg" width="27.652" height="22.979" viewBox="0 0 27.652 22.979">
  <path id="Trazado_1255" data-name="Trazado 1255" d="M264.981,194.334H247.845a.584.584,0,0,1-.576-.484l-3.032-17.431h-3.4a.584.584,0,0,1,0-1.168h3.895a.584.584,0,0,1,.576.484l3.032,17.431h16.645a.584.584,0,0,1,0,1.168Z" transform="translate(-240.25 -175.25)" fill="#a5a4bf"/>
  <path id="Trazado_1256" data-name="Trazado 1256" d="M266.308,191.1H249.171a.584.584,0,1,1,0-1.168h16.658l2.1-10.516h-21.1a.584.584,0,0,1,0-1.168h21.81a.583.583,0,0,1,.573.7l-2.337,11.684A.584.584,0,0,1,266.308,191.1Z" transform="translate(-241.576 -175.913)" fill="#a5a4bf"/>
  <path id="Trazado_1257" data-name="Trazado 1257" d="M253.834,191.1a.584.584,0,0,1-.584-.584V178.834a.584.584,0,0,1,1.168,0v11.684A.584.584,0,0,1,253.834,191.1Z" transform="translate(-243.124 -175.913)" fill="#a5a4bf"/>
  <path id="Trazado_1258" data-name="Trazado 1258" d="M260.834,191.1a.584.584,0,0,1-.584-.584V178.834a.584.584,0,1,1,1.168,0v11.684A.584.584,0,0,1,260.834,191.1Z" transform="translate(-244.671 -175.913)" fill="#a5a4bf"/>
  <path id="Trazado_1259" data-name="Trazado 1259" d="M267.308,186.418H247.834a.584.584,0,0,1,0-1.168h19.473a.584.584,0,1,1,0,1.168Z" transform="translate(-241.797 -177.461)" fill="#a5a4bf"/>
  <path id="Trazado_1260" data-name="Trazado 1260" d="M267.834,191.1a.584.584,0,0,1-.584-.584V178.834a.584.584,0,1,1,1.168,0v11.684A.584.584,0,0,1,267.834,191.1Z" transform="translate(-246.219 -175.913)" fill="#a5a4bf"/>
  <path id="Trazado_1261" data-name="Trazado 1261" d="M253.782,203.313a2.532,2.532,0,1,1,2.532-2.532A2.534,2.534,0,0,1,253.782,203.313Zm0-3.895a1.363,1.363,0,1,0,1.363,1.363A1.365,1.365,0,0,0,253.782,199.418Z" transform="translate(-242.682 -180.334)" fill="#a5a4bf"/>
  <path id="Trazado_1262" data-name="Trazado 1262" d="M266.782,203.313a2.532,2.532,0,1,1,2.532-2.532A2.534,2.534,0,0,1,266.782,203.313Zm0-3.895a1.363,1.363,0,1,0,1.363,1.363A1.365,1.365,0,0,0,266.782,199.418Z" transform="translate(-245.556 -180.334)" fill="#a5a4bf"/>
</svg>
