<svg id="logo_creditos" xmlns="http://www.w3.org/2000/svg" width="38.844" height="26.89" viewBox="0 0 38.844 26.89">
  <path id="Trazado_1214" data-name="Trazado 1214" d="M133.665,264.2a.641.641,0,0,1-.237-1.235,7.655,7.655,0,0,0,3.124-2.313.64.64,0,0,1,1,.8,8.94,8.94,0,0,1-3.648,2.7A.646.646,0,0,1,133.665,264.2Z" transform="translate(-104.191 -244.907)" fill="#a5a4bf"/>
  <path id="Trazado_1215" data-name="Trazado 1215" d="M119.23,248.843a.639.639,0,0,1-.359-.11l-.424-.286a7.966,7.966,0,0,0-3.87-1.34.641.641,0,0,1-.592-.686.648.648,0,0,1,.686-.592,9.274,9.274,0,0,1,4.494,1.555l.424.288a.64.64,0,0,1-.359,1.17Z" transform="translate(-101.405 -242.773)" fill="#a5a4bf"/>
  <path id="Trazado_1216" data-name="Trazado 1216" d="M132.278,263.9a.64.64,0,0,1-.056-1.278.985.985,0,0,0,.73-.43,1,1,0,0,0-.227-1.422.661.661,0,0,1-.08-.065l-3.593-3.38a.64.64,0,1,1,.877-.932l3.559,3.347a2.266,2.266,0,0,1,.564,3.112,2.3,2.3,0,0,1-1.716,1.046Z" transform="translate(-103.58 -244.294)" fill="#a5a4bf"/>
  <path id="Trazado_1217" data-name="Trazado 1217" d="M106.983,263.462a.645.645,0,0,1-.438-.172,8.9,8.9,0,0,1-1.911-2.583.64.64,0,1,1,1.149-.563,7.6,7.6,0,0,0,1.638,2.211.641.641,0,0,1-.438,1.108Z" transform="translate(-100.028 -244.815)" fill="#a5a4bf"/>
  <path id="Trazado_1218" data-name="Trazado 1218" d="M129.655,267.315a2.227,2.227,0,0,1-1.251-.383l-7.39-4.986a.64.64,0,1,1,.715-1.062l7.391,4.986a.983.983,0,0,0,1.367-.266,1.028,1.028,0,0,0,.188-.795.974.974,0,0,0-.415-.627l-7.343-4.952a.64.64,0,0,1,.716-1.062l7.342,4.952a2.264,2.264,0,0,1,.611,3.143A2.331,2.331,0,0,1,129.655,267.315Z" transform="translate(-102.392 -244.562)" fill="#a5a4bf"/>
  <path id="Trazado_1219" data-name="Trazado 1219" d="M127.018,270.151a2.236,2.236,0,0,1-1.249-.382l-6.1-4.1a.641.641,0,0,1,.715-1.064l6.1,4.1a.984.984,0,0,0,1.367-.265,1,1,0,0,0-.227-1.422l-6.814-4.6a.64.64,0,0,1,.716-1.062l6.814,4.6a2.267,2.267,0,0,1,.61,3.143A2.333,2.333,0,0,1,127.018,270.151Z" transform="translate(-102.196 -245.029)" fill="#a5a4bf"/>
  <path id="Trazado_1220" data-name="Trazado 1220" d="M123.111,272.073a2.225,2.225,0,0,1-1.251-.383l-1.263-.852a.64.64,0,1,1,.715-1.062l1.264.852a.983.983,0,0,0,1.366-.266,1,1,0,0,0-.227-1.422l-4.044-2.711a.64.64,0,1,1,.713-1.064l4.046,2.711a2.269,2.269,0,0,1,.613,3.145A2.332,2.332,0,0,1,123.111,272.073Z" transform="translate(-102.196 -245.586)" fill="#a5a4bf"/>
  <path id="Trazado_1221" data-name="Trazado 1221" d="M127.438,255.695a5.177,5.177,0,0,1-1.161-.133,5.088,5.088,0,0,1-3.19-2.276l-1.236-2-2.15.847a3.959,3.959,0,0,1-5.143-2.2.642.642,0,0,1,.357-.833l9.44-3.784a9.263,9.263,0,0,1,4.56-.6.64.64,0,1,1-.154,1.271,7.976,7.976,0,0,0-3.929.516l-8.776,3.517a2.678,2.678,0,0,0,3.171.923l2.651-1.043a.641.641,0,0,1,.779.259l1.516,2.448a3.838,3.838,0,0,0,5.29,1.219.64.64,0,1,1,.679,1.086A5.092,5.092,0,0,1,127.438,255.695Z" transform="translate(-101.483 -242.601)" fill="#a5a4bf"/>
  <path id="Trazado_1222" data-name="Trazado 1222" d="M108.861,265.565a2.3,2.3,0,0,1-1.854-3.652l2.261-3.1a2.3,2.3,0,0,1,3.716,2.707l-2.261,3.1h0A2.3,2.3,0,0,1,108.861,265.565Zm2.267-6.42a1.024,1.024,0,0,0-.825.418l-2.261,3.1a1.019,1.019,0,0,0,1.647,1.2l2.261-3.1a1.02,1.02,0,0,0-.821-1.619Zm-.922,5.1h0Z" transform="translate(-100.32 -244.534)" fill="#a5a4bf"/>
  <path id="Trazado_1223" data-name="Trazado 1223" d="M112,267.637a2.3,2.3,0,0,1-1.855-3.651l3.183-4.369a2.3,2.3,0,1,1,3.716,2.706l-3.183,4.369h0A2.3,2.3,0,0,1,112,267.637Zm3.188-7.686a.932.932,0,0,0-.16.014,1.007,1.007,0,0,0-.665.406l-3.183,4.368a1.019,1.019,0,0,0,1.646,1.2h0l3.183-4.37a1.019,1.019,0,0,0-.821-1.618Zm-1.845,6.364h0Z" transform="translate(-100.78 -244.652)" fill="#a5a4bf"/>
  <path id="Trazado_1224" data-name="Trazado 1224" d="M115.141,270.142a2.3,2.3,0,0,1-1.853-3.652l2.261-3.1a2.3,2.3,0,1,1,3.716,2.707L117,269.2h0a2.281,2.281,0,0,1-1.5.918A2.349,2.349,0,0,1,115.141,270.142Zm2.267-6.422a.932.932,0,0,0-.161.014,1.011,1.011,0,0,0-.665.406l-2.261,3.1a1.019,1.019,0,0,0,1.647,1.2l2.261-3.1a1.02,1.02,0,0,0-.821-1.619Zm-.922,5.1h0Z" transform="translate(-101.239 -245.204)" fill="#a5a4bf"/>
  <path id="Trazado_1225" data-name="Trazado 1225" d="M118.283,272.641a2.3,2.3,0,0,1-1.855-3.65l1.356-1.862a2.3,2.3,0,1,1,3.716,2.707l-1.356,1.862h0A2.3,2.3,0,0,1,118.283,272.641Zm1.36-5.176a1.018,1.018,0,0,0-.825.417l-1.356,1.861a1.019,1.019,0,0,0,1.646,1.2l1.356-1.862a1.017,1.017,0,0,0-.821-1.617Zm-.017,3.855h0Z" transform="translate(-101.699 -245.751)" fill="#a5a4bf"/>
  <path id="Trazado_1226" data-name="Trazado 1226" d="M104.192,258.854a.637.637,0,0,1-.4-.137l-4.3-3.372a.64.64,0,1,1,.791-1.007l3.76,2.948,7.648-11.337-3.632-2.534a.64.64,0,1,1,.732-1.05l4.15,2.894a.641.641,0,0,1,.164.884l-8.385,12.429a.642.642,0,0,1-.431.274A.653.653,0,0,1,104.192,258.854Z" transform="translate(-99.25 -242.25)" fill="#a5a4bf"/>
  <path id="Trazado_1227" data-name="Trazado 1227" d="M136.8,259.3a.648.648,0,0,1-.252-.052.64.64,0,0,1-.342-.35l-5.578-13.918a.64.64,0,0,1,.366-.837l4.848-1.847a.64.64,0,0,1,.456,1.2l-4.239,1.615,5.1,12.718,4.645-1.866a.64.64,0,0,1,.478,1.188l-5.24,2.105A.643.643,0,0,1,136.8,259.3Z" transform="translate(-103.833 -242.25)" fill="#a5a4bf"/>
</svg>
