<svg xmlns="http://www.w3.org/2000/svg" width="67.702" height="72" viewBox="0 0 67.702 72">
  <g id="logo_like" transform="translate(-379.25 -377.25)">
    <path id="Trazado_1474" data-name="Trazado 1474" d="M397.519,435.459H380.862a1.612,1.612,0,0,1,0-3.224h13.433V392.474H380.862a1.612,1.612,0,0,1,0-3.224h16.657Z" transform="translate(0 13.791)" fill="#035fe9"/>
    <path id="Trazado_1475" data-name="Trazado 1475" d="M418.166,403.22a1.661,1.661,0,0,1-1.668-1.612A1.568,1.568,0,0,1,418.056,400a2.679,2.679,0,0,0,2.687-2.727V395.2a2.656,2.656,0,0,0-2.577-2.725h-17.3a1.612,1.612,0,1,1,0-3.224h17.3a5.882,5.882,0,0,1,5.8,5.949v2.07A5.884,5.884,0,0,1,418.166,403.22Z" transform="translate(22.985 13.791)" fill="#035fe9"/>
    <path id="Trazado_1476" data-name="Trazado 1476" d="M387.864,410.563a1.612,1.612,0,0,1-.785-3.02c4.453-2.474,12.472-8.412,15.038-13.824.737-1.554,1.214-6.244,1.092-10.684a5.849,5.849,0,0,1,1.61-4.23,5.015,5.015,0,0,1,3.615-1.556h.318c5.96,0,10.811,5.3,10.811,11.823v.359c0,2.012-1.947,14.106-2.171,15.479a1.611,1.611,0,0,1-3.181-.516c.823-5.085,2.128-13.646,2.128-14.963v-.359c0-4.741-3.4-8.6-7.587-8.6h-.23a1.862,1.862,0,0,0-1.393.58,2.6,2.6,0,0,0-.7,1.893c.09,3.226-.105,9.416-1.4,12.154-3.25,6.858-12.93,13.34-16.386,15.258A1.58,1.58,0,0,1,387.864,410.563Z" transform="translate(8.045 0)" fill="#035fe9"/>
    <path id="Trazado_1477" data-name="Trazado 1477" d="M410.121,408.22h-2.259a1.612,1.612,0,1,1,0-3.224h2.259a2.6,2.6,0,0,0,2.577-2.616V400.09a2.6,2.6,0,0,0-2.577-2.616,1.661,1.661,0,0,1-1.668-1.612,1.568,1.568,0,0,1,1.558-1.612h.11a5.827,5.827,0,0,1,5.8,5.84v2.291A5.827,5.827,0,0,1,410.121,408.22Z" transform="translate(31.03 19.537)" fill="#035fe9"/>
    <path id="Trazado_1478" data-name="Trazado 1478" d="M409.121,413.22h-2.259a1.612,1.612,0,0,1,0-3.224h2.259a2.6,2.6,0,0,0,2.577-2.616V405.09a2.6,2.6,0,0,0-2.577-2.616,1.661,1.661,0,0,1-1.668-1.612,1.568,1.568,0,0,1,1.558-1.612h.11a5.827,5.827,0,0,1,5.8,5.84v2.291A5.827,5.827,0,0,1,409.121,413.22Z" transform="translate(29.881 25.284)" fill="#035fe9"/>
    <path id="Trazado_1479" data-name="Trazado 1479" d="M428.568,418.22l-31.833-.019a22.482,22.482,0,0,1-9.328-2.01,1.613,1.613,0,1,1,1.328-2.94,19.237,19.237,0,0,0,8,1.726l31.83.019a2.656,2.656,0,0,0,2.577-2.725V410.2a2.656,2.656,0,0,0-2.577-2.725,1.612,1.612,0,0,1,0-3.224,5.882,5.882,0,0,1,5.8,5.949v2.072A5.882,5.882,0,0,1,428.568,418.22Z" transform="translate(8.284 31.03)" fill="#035fe9"/>
  </g>
</svg>
