<svg xmlns="http://www.w3.org/2000/svg" width="37.305" height="31" viewBox="0 0 37.305 31">
  <g id="logo_cuerpo_tienda_virtual" transform="translate(-286 -95)">
    <g id="Grupo_1500" data-name="Grupo 1500" transform="translate(45.75 -80.25)">
      <path id="Trazado_1255" data-name="Trazado 1255" d="M273.614,201H250.5a.788.788,0,0,1-.777-.654l-4.09-23.516h-4.591a.788.788,0,1,1,0-1.576h5.254a.788.788,0,0,1,.777.654l4.09,23.516h22.456a.788.788,0,0,1,0,1.576Z" fill="#43425d"/>
      <path id="Trazado_1256" data-name="Trazado 1256" d="M273.309,195.589H250.191a.788.788,0,1,1,0-1.576h22.472l2.837-14.186H247.038a.788.788,0,1,1,0-1.576h29.424a.787.787,0,0,1,.772.943l-3.153,15.763A.788.788,0,0,1,273.309,195.589Z" transform="translate(0.305 0.153)" fill="#43425d"/>
      <path id="Trazado_1257" data-name="Trazado 1257" d="M254.038,195.589a.788.788,0,0,1-.788-.788V179.038a.788.788,0,1,1,1.576,0V194.8A.788.788,0,0,1,254.038,195.589Z" transform="translate(0.661 0.153)" fill="#43425d"/>
      <path id="Trazado_1258" data-name="Trazado 1258" d="M261.038,195.589a.788.788,0,0,1-.788-.788V179.038a.788.788,0,1,1,1.576,0V194.8A.788.788,0,0,1,261.038,195.589Z" transform="translate(1.017 0.153)" fill="#43425d"/>
      <path id="Trazado_1259" data-name="Trazado 1259" d="M274.309,186.826H248.038a.788.788,0,1,1,0-1.576h26.271a.788.788,0,1,1,0,1.576Z" transform="translate(0.356 0.508)" fill="#43425d"/>
      <path id="Trazado_1260" data-name="Trazado 1260" d="M268.038,195.589a.788.788,0,0,1-.788-.788V179.038a.788.788,0,1,1,1.576,0V194.8A.788.788,0,0,1,268.038,195.589Z" transform="translate(1.373 0.153)" fill="#43425d"/>
      <path id="Trazado_1261" data-name="Trazado 1261" d="M254.665,205.081a3.415,3.415,0,1,1,3.415-3.415A3.419,3.419,0,0,1,254.665,205.081Zm0-5.254a1.839,1.839,0,1,0,1.839,1.839A1.841,1.841,0,0,0,254.665,199.826Z" transform="translate(0.559 1.169)" fill="#43425d"/>
      <path id="Trazado_1262" data-name="Trazado 1262" d="M267.665,205.081a3.415,3.415,0,1,1,3.415-3.415A3.419,3.419,0,0,1,267.665,205.081Zm0-5.254a1.839,1.839,0,1,0,1.839,1.839A1.841,1.841,0,0,0,267.665,199.826Z" transform="translate(1.22 1.169)" fill="#43425d"/>
    </g>
  </g>
</svg>
