<svg xmlns="http://www.w3.org/2000/svg" width="28.676" height="33.344" viewBox="0 0 28.676 33.344">
  <g id="logo_cuerpo_mis_pedidos" transform="translate(-299 -93)">
    <g id="Grupo_1736" data-name="Grupo 1736" transform="translate(120.75 -12.25)">
      <g id="Grupo_1735" data-name="Grupo 1735" transform="translate(181.197 104.911)">
        <path id="Trazado_1572" data-name="Trazado 1572" d="M199.754,116.445H187.276a.927.927,0,0,1,0-1.83h12.478a.927.927,0,0,1,0,1.83Z" transform="translate(-179.381 -106.848)" fill="#43425d"/>
        <path id="Trazado_1573" data-name="Trazado 1573" d="M196.634,120.445h-9.358a.927.927,0,0,1,0-1.83h9.358a.927.927,0,0,1,0,1.83Z" transform="translate(-179.381 -105.967)" fill="#43425d"/>
        <path id="Trazado_1574" data-name="Trazado 1574" d="M182.782,118.716h-.02a.737.737,0,0,1-.558-.3l-1.337-1.734a1.026,1.026,0,0,1,.055-1.292.7.7,0,0,1,1.1.065l.787,1.02,1.978-2.321a.7.7,0,0,1,1.1,0,1.03,1.03,0,0,1,0,1.295l-2.558,3A.727.727,0,0,1,182.782,118.716Z" transform="translate(-180.665 -107.009)" fill="#43425d"/>
        <path id="Trazado_1575" data-name="Trazado 1575" d="M199.8,125.243H187.322a.927.927,0,0,1,0-1.83H199.8a.927.927,0,0,1,0,1.83Z" transform="translate(-179.37 -104.91)" fill="#43425d"/>
        <path id="Trazado_1576" data-name="Trazado 1576" d="M196.68,129.243h-9.358a.927.927,0,0,1,0-1.83h9.358a.927.927,0,0,1,0,1.83Z" transform="translate(-179.37 -104.029)" fill="#43425d"/>
        <path id="Trazado_1577" data-name="Trazado 1577" d="M182.828,127.513h-.02a.733.733,0,0,1-.558-.3l-1.337-1.734a1.025,1.025,0,0,1,.055-1.291.7.7,0,0,1,1.1.063l.787,1.02,1.979-2.32a.7.7,0,0,1,1.1,0,1.03,1.03,0,0,1,0,1.295l-2.558,3A.73.73,0,0,1,182.828,127.513Z" transform="translate(-180.655 -105.071)" fill="#43425d"/>
      </g>
      <path id="Trazado_1578" data-name="Trazado 1578" d="M206.657,110.02l-4.881-4.522a.952.952,0,0,0-.647-.248H179.165a.884.884,0,0,0-.915.848v31.648a.761.761,0,0,0,.055.253c0,.013,0,.028.009.041a.8.8,0,0,0,.071.121.752.752,0,0,0,.646.433h11.02a.927.927,0,0,0,0-1.83H180.08V106.945h20.67l4.345,4.026v26.776a.918.918,0,0,0,1.83,0V110.619A.815.815,0,0,0,206.657,110.02Z" fill="#43425d"/>
    </g>
  </g>
</svg>
