<svg xmlns="http://www.w3.org/2000/svg" width="39" height="27" viewBox="0 0 39 27">
  <g id="Grupo_1782" data-name="Grupo 1782" transform="translate(4577 -2726)">
    <rect id="Rectángulo_2989" data-name="Rectángulo 2989" width="39" height="27" transform="translate(-4577 2726)" fill="none"/>
    <g id="Grupo_1781" data-name="Grupo 1781" transform="translate(-10 -33)">
      <path id="Trazado_1228" data-name="Trazado 1228" d="M123.562,192.128a.523.523,0,0,1-.056,0,.513.513,0,0,1-.455-.565l1.11-10.241a.513.513,0,1,1,1.019.111l-1.11,10.241A.511.511,0,0,1,123.562,192.128Z" transform="translate(-4669.515 2586.075)" fill="#43425d"/>
      <path id="Trazado_1229" data-name="Trazado 1229" d="M117.841,191.639a.526.526,0,0,1-.1-.009.512.512,0,0,1-.407-.6l2.083-10.828a.512.512,0,1,1,1.006.193l-2.082,10.828A.512.512,0,0,1,117.841,191.639Z" transform="translate(-4667.705 2586.416)" fill="#43425d"/>
      <path id="Trazado_1230" data-name="Trazado 1230" d="M122.641,193.484c-.02,0-.041,0-.062,0l-1.755-.212a.513.513,0,1,1,.123-1.018l1.754.212a.512.512,0,0,1-.061,1.021Z" transform="translate(-4668.669 2582.472)" fill="#43425d"/>
      <path id="Trazado_1231" data-name="Trazado 1231" d="M123.53,185.449a.461.461,0,0,1-.061,0l-1.589-.189a.513.513,0,0,1,.122-1.018l1.588.19a.513.513,0,0,1-.06,1.022Z" transform="translate(-4669.003 2585.008)" fill="#43425d"/>
      <path id="Trazado_1232" data-name="Trazado 1232" d="M121.33,188.875l-.049,0-1.521-.144a.513.513,0,0,1-.462-.558.507.507,0,0,1,.558-.462l1.522.144a.513.513,0,0,1-.048,1.023Z" transform="translate(-4668.328 2583.91)" fill="#43425d"/>
      <path id="Trazado_1233" data-name="Trazado 1233" d="M125.267,176.728a.513.513,0,0,1-.031-1.025l8.909-.535a4.946,4.946,0,0,0-2.5-2.559.915.915,0,0,0-.432-.058c-1.393.164-3.835,1.258-6.876,3.081a.513.513,0,0,1-.528-.88c2.237-1.341,5.317-2.988,7.285-3.22a1.9,1.9,0,0,1,.932.124,5.624,5.624,0,0,1,3.284,3.953.512.512,0,0,1-.481.543l-9.531.573Z" transform="translate(-4669.678 2589.031)" fill="#43425d"/>
      <path id="Trazado_1234" data-name="Trazado 1234" d="M129.86,186.789h-.031a.511.511,0,0,1-.356-.177l-6.836-7.924h0l-.349-.405a.994.994,0,0,1-.057-1.245.966.966,0,0,1,1.162-.343c2.565,1.024,5.927,2.562,7.378,4.075a1.988,1.988,0,0,1,.47.818,5.732,5.732,0,0,1-1.036,5.07A.512.512,0,0,1,129.86,186.789Zm-6.447-8.771,6.416,7.438a5.119,5.119,0,0,0,.425-3.584.948.948,0,0,0-.226-.394c-1.393-1.454-4.995-3.025-7.018-3.833Z" transform="translate(-4669.195 2587.417)" fill="#43425d"/>
      <path id="Trazado_1235" data-name="Trazado 1235" d="M117.105,175.484a.526.526,0,0,1-.125-.015l-9.064-2.261a.513.513,0,0,1-.375-.617,5.559,5.559,0,0,1,3.916-3.3,1.91,1.91,0,0,1,.939.046c1.984.609,4.88,2.938,6.96,4.786a.513.513,0,0,1-.681.766c-1.64-1.457-4.676-3.988-6.579-4.572a.9.9,0,0,0-.435-.021,4.882,4.882,0,0,0-2.9,2.069l8.468,2.113a.512.512,0,0,1-.124,1.01Z" transform="translate(-4664.604 2589.75)" fill="#43425d"/>
      <path id="Trazado_1236" data-name="Trazado 1236" d="M110.116,184.811a.491.491,0,0,1-.094-.009.511.511,0,0,1-.332-.219,5.749,5.749,0,0,1,.212-5.173,1.956,1.956,0,0,1,.655-.678c1.769-1.1,5.4-1.752,8.131-2.1a.513.513,0,0,1,.131,1.018c-2.155.275-6.022.9-7.719,1.954a.929.929,0,0,0-.31.323,5.12,5.12,0,0,0-.444,3.588l8.184-5.73a.512.512,0,0,1,.588.839l-8.708,6.1A.512.512,0,0,1,110.116,184.811Z" transform="translate(-4665.126 2587.415)" fill="#43425d"/>
      <path id="Trazado_1237" data-name="Trazado 1237" d="M124.385,202.51a.513.513,0,0,1-.513-.513c0-3.011-3.5-5.46-7.8-5.46s-7.8,2.449-7.8,5.46a.513.513,0,1,1-1.025,0c0-3.576,3.958-6.486,8.824-6.486S124.9,198.421,124.9,202A.513.513,0,0,1,124.385,202.51Z" transform="translate(-4664.516 2581.439)" fill="#43425d"/>
      <path id="Trazado_1238" data-name="Trazado 1238" d="M127,205.275H103.763a.513.513,0,0,1,0-1.025H127a.513.513,0,0,1,0,1.025Z" transform="translate(-4663.25 2578.674)" fill="#43425d"/>
      <path id="Trazado_1239" data-name="Trazado 1239" d="M124.535,208.275H106.763a.513.513,0,1,1,0-1.025h17.772a.513.513,0,1,1,0,1.025Z" transform="translate(-4664.2 2577.725)" fill="#43425d"/>
    </g>
  </g>
</svg>
