<svg xmlns="http://www.w3.org/2000/svg" width="39" height="27.159" viewBox="0 0 39 27.159">
  <g id="Grupo_1785" data-name="Grupo 1785" transform="translate(4578 -2767)">
    <rect id="Rectángulo_2989" data-name="Rectángulo 2989" width="39" height="27" transform="translate(-4578 2767)" fill="none"/>
    <g id="Grupo_1784" data-name="Grupo 1784" transform="translate(4 -20.01)">
      <path id="Trazado_1460" data-name="Trazado 1460" d="M274.12,143.53l1.829-2.439-10.975-8.536L254,141.091l1.829,2.439,9.146-7.316Z" transform="translate(-4825.286 2655.238)" fill="none" stroke="#43425d" stroke-linecap="round" stroke-linejoin="round" stroke-width="1.5"/>
      <g id="Grupo_1551" data-name="Grupo 1551" transform="translate(-4576 2801.738)">
        <path id="Trazado_1461" data-name="Trazado 1461" d="M274.2,158.06l5.712-1.217a1.283,1.283,0,0,1,1.46.693,1.245,1.245,0,0,1-.73,1.5l-9.968,4.195a15.712,15.712,0,0,1-5.291.881,12.478,12.478,0,0,1-3.25-.395l-1.13-.338" transform="translate(-253.7 -153.889)" fill="none" stroke="#43425d" stroke-linecap="round" stroke-linejoin="round" stroke-width="1.5"/>
        <path id="Trazado_1462" data-name="Trazado 1462" d="M258.3,163.3l-2.19,1.46L251,155.269l2.19-1.46Z" transform="translate(-251 -153.079)" fill="none" stroke="#43425d" stroke-linecap="round" stroke-linejoin="round" stroke-width="1.5"/>
        <path id="Trazado_1463" data-name="Trazado 1463" d="M263.761,158.649H270.7a1.825,1.825,0,0,0,1.825-1.825h0A1.825,1.825,0,0,0,270.7,155h-4.745l-.623-.467a8.615,8.615,0,0,0-5.169-1.723h0a8.614,8.614,0,0,0-3.421.708l-1.738.752" transform="translate(-252.08 -152.809)" fill="none" stroke="#43425d" stroke-linecap="round" stroke-linejoin="round" stroke-width="1.5"/>
      </g>
    </g>
  </g>
</svg>
